<?xml version="1.0" encoding="utf-8" standalone="no"?>
<!DOCTYPE svg PUBLIC "-//W3C//DTD SVG 1.1//EN"
  "http://www.w3.org/Graphics/SVG/1.1/DTD/svg11.dtd">
<svg xmlns:xlink="http://www.w3.org/1999/xlink" width="1080pt" height="576pt" viewBox="0 0 1080 576" xmlns="http://www.w3.org/2000/svg" version="1.1">
 <metadata>
  <rdf:RDF xmlns:dc="http://purl.org/dc/elements/1.1/" xmlns:cc="http://creativecommons.org/ns#" xmlns:rdf="http://www.w3.org/1999/02/22-rdf-syntax-ns#">
   <cc:Work>
    <dc:type rdf:resource="http://purl.org/dc/dcmitype/StillImage"/>
    <dc:date>2025-04-29T12:27:35.047911</dc:date>
    <dc:format>image/svg+xml</dc:format>
    <dc:creator>
     <cc:Agent>
      <dc:title>Matplotlib v3.6.2, https://matplotlib.org/</dc:title>
     </cc:Agent>
    </dc:creator>
   </cc:Work>
  </rdf:RDF>
 </metadata>
 <defs>
  <style type="text/css">*{stroke-linejoin: round; stroke-linecap: butt}</style>
 </defs>
 <g id="figure_1">
  <g id="patch_1">
   <path d="M 0 576 
L 1080 576 
L 1080 0 
L 0 0 
z
" style="fill: #ffffff"/>
  </g>
  <g id="axes_1">
   <g id="patch_2">
    <path d="M 44.67125 533.93875 
L 529.92 533.93875 
L 529.92 27.24 
L 44.67125 27.24 
z
" style="fill: #ffffff"/>
   </g>
   <g id="PathCollection_1">
    <path d="M 507.863239 66.08315 
C 512.056468 66.08315 516.078518 64.417162 519.043579 61.452101 
C 522.008639 58.48704 523.674627 54.464991 523.674627 50.271761 
C 523.674627 46.078532 522.008639 42.056482 519.043579 39.091421 
C 516.078518 36.126361 512.056468 34.460373 507.863239 34.460373 
C 503.670009 34.460373 499.64796 36.126361 496.682899 39.091421 
C 493.717838 42.056482 492.05185 46.078532 492.05185 50.271761 
C 492.05185 54.464991 493.717838 58.48704 496.682899 61.452101 
C 499.64796 64.417162 503.670009 66.08315 507.863239 66.08315 
z
" clip-path="url(#p1770e4f795)" style="fill: #1f77b4; fill-opacity: 0.7; stroke: #ffffff; stroke-opacity: 0.7; stroke-width: 1.047507"/>
    <path d="M 459.242902 70.037155 
C 462.884783 70.037155 466.377992 68.590221 468.95319 66.015022 
C 471.528389 63.439824 472.975323 59.946615 472.975323 56.304734 
C 472.975323 52.662854 471.528389 49.169645 468.95319 46.594446 
C 466.377992 44.019248 462.884783 42.572313 459.242902 42.572313 
C 455.601022 42.572313 452.107813 44.019248 449.532614 46.594446 
C 446.957416 49.169645 445.510481 52.662854 445.510481 56.304734 
C 445.510481 59.946615 446.957416 63.439824 449.532614 66.015022 
C 452.107813 68.590221 455.601022 70.037155 459.242902 70.037155 
z
" clip-path="url(#p1770e4f795)" style="fill: #1f77b4; fill-opacity: 0.7; stroke: #ffffff; stroke-opacity: 0.7; stroke-width: 1.047507"/>
    <path d="M 402.598765 105.471832 
C 405.944137 105.471832 409.152942 104.142701 411.518478 101.777166 
C 413.884013 99.41163 415.213144 96.202825 415.213144 92.857453 
C 415.213144 89.51208 413.884013 86.303275 411.518478 83.93774 
C 409.152942 81.572204 405.944137 80.243073 402.598765 80.243073 
C 399.253392 80.243073 396.044587 81.572204 393.679051 83.93774 
C 391.313516 86.303275 389.984385 89.51208 389.984385 92.857453 
C 389.984385 96.202825 391.313516 99.41163 393.679051 101.777166 
C 396.044587 104.142701 399.253392 105.471832 402.598765 105.471832 
z
" clip-path="url(#p1770e4f795)" style="fill: #1f77b4; fill-opacity: 0.7; stroke: #ffffff; stroke-opacity: 0.7; stroke-width: 1.047507"/>
    <path d="M 327.944288 184.664031 
C 330.927464 184.664031 333.788858 183.478803 335.898282 181.369379 
C 338.007705 179.259955 339.192934 176.398561 339.192934 173.415385 
C 339.192934 170.43221 338.007705 167.570815 335.898282 165.461392 
C 333.788858 163.351968 330.927464 162.166739 327.944288 162.166739 
C 324.961112 162.166739 322.099718 163.351968 319.990294 165.461392 
C 317.88087 167.570815 316.695642 170.43221 316.695642 173.415385 
C 316.695642 176.398561 317.88087 179.259955 319.990294 181.369379 
C 322.099718 183.478803 324.961112 184.664031 327.944288 184.664031 
z
" clip-path="url(#p1770e4f795)" style="fill: #1f77b4; fill-opacity: 0.7; stroke: #ffffff; stroke-opacity: 0.7; stroke-width: 1.047507"/>
    <path d="M 227.436036 222.147214 
C 230.477743 222.147214 233.395279 220.938731 235.546091 218.787919 
C 237.696902 216.637108 238.905385 213.719572 238.905385 210.677865 
C 238.905385 207.636158 237.696902 204.718622 235.546091 202.567811 
C 233.395279 200.416999 230.477743 199.208516 227.436036 199.208516 
C 224.394329 199.208516 221.476794 200.416999 219.325982 202.567811 
C 217.17517 204.718622 215.966688 207.636158 215.966688 210.677865 
C 215.966688 213.719572 217.17517 216.637108 219.325982 218.787919 
C 221.476794 220.938731 224.394329 222.147214 227.436036 222.147214 
z
" clip-path="url(#p1770e4f795)" style="fill: #1f77b4; fill-opacity: 0.7; stroke: #ffffff; stroke-opacity: 0.7; stroke-width: 1.047507"/>
    <path d="M 244.128599 273.049351 
C 246.928851 273.049351 249.614788 271.936799 251.594865 269.956722 
C 253.574942 267.976645 254.687494 265.290708 254.687494 262.490456 
C 254.687494 259.690205 253.574942 257.004267 251.594865 255.02419 
C 249.614788 253.044114 246.928851 251.931562 244.128599 251.931562 
C 241.328348 251.931562 238.64241 253.044114 236.662334 255.02419 
C 234.682257 257.004267 233.569705 259.690205 233.569705 262.490456 
C 233.569705 265.290708 234.682257 267.976645 236.662334 269.956722 
C 238.64241 271.936799 241.328348 273.049351 244.128599 273.049351 
z
" clip-path="url(#p1770e4f795)" style="fill: #1f77b4; fill-opacity: 0.7; stroke: #ffffff; stroke-opacity: 0.7; stroke-width: 1.047507"/>
    <path d="M 363.024523 134.792357 
C 365.534224 134.792357 367.941471 133.795242 369.716097 132.020616 
C 371.490723 130.24599 372.487838 127.838743 372.487838 125.329042 
C 372.487838 122.819342 371.490723 120.412095 369.716097 118.637469 
C 367.941471 116.862842 365.534224 115.865728 363.024523 115.865728 
C 360.514823 115.865728 358.107576 116.862842 356.33295 118.637469 
C 354.558324 120.412095 353.561209 122.819342 353.561209 125.329042 
C 353.561209 127.838743 354.558324 130.24599 356.33295 132.020616 
C 358.107576 133.795242 360.514823 134.792357 363.024523 134.792357 
z
" clip-path="url(#p1770e4f795)" style="fill: #1f77b4; fill-opacity: 0.7; stroke: #ffffff; stroke-opacity: 0.7; stroke-width: 1.047507"/>
    <path d="M 178.071217 319.893611 
C 180.871469 319.893611 183.557406 318.781059 185.537483 316.800982 
C 187.51756 314.820906 188.630111 312.134968 188.630111 309.334717 
C 188.630111 306.534465 187.51756 303.848528 185.537483 301.868451 
C 183.557406 299.888374 180.871469 298.775822 178.071217 298.775822 
C 175.270966 298.775822 172.585028 299.888374 170.604951 301.868451 
C 168.624874 303.848528 167.512323 306.534465 167.512323 309.334717 
C 167.512323 312.134968 168.624874 314.820906 170.604951 316.800982 
C 172.585028 318.781059 175.270966 319.893611 178.071217 319.893611 
z
" clip-path="url(#p1770e4f795)" style="fill: #1f77b4; fill-opacity: 0.7; stroke: #ffffff; stroke-opacity: 0.7; stroke-width: 1.047507"/>
    <path d="M 253.196048 349.555791 
C 256.004159 349.555791 258.697636 348.440117 260.68327 346.454482 
C 262.668905 344.468848 263.784579 341.775371 263.784579 338.96726 
C 263.784579 336.159149 262.668905 333.465672 260.68327 331.480038 
C 258.697636 329.494403 256.004159 328.378729 253.196048 328.378729 
C 250.387937 328.378729 247.69446 329.494403 245.708826 331.480038 
C 243.723191 333.465672 242.607517 336.159149 242.607517 338.96726 
C 242.607517 341.775371 243.723191 344.468848 245.708826 346.454482 
C 247.69446 348.440117 250.387937 349.555791 253.196048 349.555791 
z
" clip-path="url(#p1770e4f795)" style="fill: #1f77b4; fill-opacity: 0.7; stroke: #ffffff; stroke-opacity: 0.7; stroke-width: 1.047507"/>
    <path d="M 281.942001 211.346836 
C 284.142897 211.346836 286.253947 210.472411 287.810215 208.916143 
C 289.366484 207.359874 290.240909 205.248825 290.240909 203.047929 
C 290.240909 200.847033 289.366484 198.735984 287.810215 197.179715 
C 286.253947 195.623447 284.142897 194.749021 281.942001 194.749021 
C 279.741105 194.749021 277.630056 195.623447 276.073788 197.179715 
C 274.517519 198.735984 273.643094 200.847033 273.643094 203.047929 
C 273.643094 205.248825 274.517519 207.359874 276.073788 208.916143 
C 277.630056 210.472411 279.741105 211.346836 281.942001 211.346836 
z
" clip-path="url(#p1770e4f795)" style="fill: #1f77b4; fill-opacity: 0.7; stroke: #ffffff; stroke-opacity: 0.7; stroke-width: 1.047507"/>
    <path d="M 238.53519 296.462382 
C 240.909508 296.462382 243.186901 295.519055 244.865798 293.840158 
C 246.544695 292.161261 247.488022 289.883869 247.488022 287.50955 
C 247.488022 285.135231 246.544695 282.857838 244.865798 281.178942 
C 243.186901 279.500045 240.909508 278.556718 238.53519 278.556718 
C 236.160871 278.556718 233.883478 279.500045 232.204581 281.178942 
C 230.525684 282.857838 229.582357 285.135231 229.582357 287.50955 
C 229.582357 289.883869 230.525684 292.161261 232.204581 293.840158 
C 233.883478 295.519055 236.160871 296.462382 238.53519 296.462382 
z
" clip-path="url(#p1770e4f795)" style="fill: #1f77b4; fill-opacity: 0.7; stroke: #ffffff; stroke-opacity: 0.7; stroke-width: 1.047507"/>
    <path d="M 146.481821 273.497081 
C 148.742003 273.497081 150.909919 272.599101 152.50811 271.00091 
C 154.1063 269.40272 155.00428 267.234804 155.00428 264.974622 
C 155.00428 262.714439 154.1063 260.546523 152.50811 258.948333 
C 150.909919 257.350142 148.742003 256.452162 146.481821 256.452162 
C 144.221638 256.452162 142.053723 257.350142 140.455532 258.948333 
C 138.857342 260.546523 137.959362 262.714439 137.959362 264.974622 
C 137.959362 267.234804 138.857342 269.40272 140.455532 271.00091 
C 142.053723 272.599101 144.221638 273.497081 146.481821 273.497081 
z
" clip-path="url(#p1770e4f795)" style="fill: #1f77b4; fill-opacity: 0.7; stroke: #ffffff; stroke-opacity: 0.7; stroke-width: 1.047507"/>
    <path d="M 252.322363 283.387631 
C 254.523259 283.387631 256.634308 282.513205 258.190577 280.956937 
C 259.746845 279.400669 260.62127 277.289619 260.62127 275.088723 
C 260.62127 272.887827 259.746845 270.776778 258.190577 269.220509 
C 256.634308 267.664241 254.523259 266.789816 252.322363 266.789816 
C 250.121467 266.789816 248.010418 267.664241 246.454149 269.220509 
C 244.897881 270.776778 244.023455 272.887827 244.023455 275.088723 
C 244.023455 277.289619 244.897881 279.400669 246.454149 280.956937 
C 248.010418 282.513205 250.121467 283.387631 252.322363 283.387631 
z
" clip-path="url(#p1770e4f795)" style="fill: #1f77b4; fill-opacity: 0.7; stroke: #ffffff; stroke-opacity: 0.7; stroke-width: 1.047507"/>
    <path d="M 271.546648 283.439859 
C 273.526106 283.439859 275.424757 282.653412 276.824446 281.253723 
C 278.224134 279.854035 279.010581 277.955383 279.010581 275.975925 
C 279.010581 273.996467 278.224134 272.097815 276.824446 270.698127 
C 275.424757 269.298439 273.526106 268.511991 271.546648 268.511991 
C 269.567189 268.511991 267.668538 269.298439 266.268849 270.698127 
C 264.869161 272.097815 264.082714 273.996467 264.082714 275.975925 
C 264.082714 277.955383 264.869161 279.854035 266.268849 281.253723 
C 267.668538 282.653412 269.567189 283.439859 271.546648 283.439859 
z
" clip-path="url(#p1770e4f795)" style="fill: #1f77b4; fill-opacity: 0.7; stroke: #ffffff; stroke-opacity: 0.7; stroke-width: 1.047507"/>
    <path d="M 168.459531 275.377553 
C 170.324324 275.377553 172.11299 274.636663 173.431598 273.318056 
C 174.750206 271.999448 175.491096 270.210781 175.491096 268.345989 
C 175.491096 266.481196 174.750206 264.692529 173.431598 263.373922 
C 172.11299 262.055314 170.324324 261.314424 168.459531 261.314424 
C 166.594739 261.314424 164.806072 262.055314 163.487464 263.373922 
C 162.168857 264.692529 161.427967 266.481196 161.427967 268.345989 
C 161.427967 270.210781 162.168857 271.999448 163.487464 273.318056 
C 164.806072 274.636663 166.594739 275.377553 168.459531 275.377553 
z
" clip-path="url(#p1770e4f795)" style="fill: #1f77b4; fill-opacity: 0.7; stroke: #ffffff; stroke-opacity: 0.7; stroke-width: 1.047507"/>
    <path d="M 388.032515 190.744547 
C 389.710682 190.744547 391.320342 190.077804 392.506986 188.89116 
C 393.69363 187.704516 394.360373 186.094856 394.360373 184.416689 
C 394.360373 182.738521 393.69363 181.128861 392.506986 179.942218 
C 391.320342 178.755574 389.710682 178.088831 388.032515 178.088831 
C 386.354347 178.088831 384.744687 178.755574 383.558044 179.942218 
C 382.3714 181.128861 381.704657 182.738521 381.704657 184.416689 
C 381.704657 186.094856 382.3714 187.704516 383.558044 188.89116 
C 384.744687 190.077804 386.354347 190.744547 388.032515 190.744547 
z
" clip-path="url(#p1770e4f795)" style="fill: #1f77b4; fill-opacity: 0.7; stroke: #ffffff; stroke-opacity: 0.7; stroke-width: 1.047507"/>
    <path d="M 464.826674 111.875243 
C 466.152689 111.875243 467.424573 111.348411 468.362208 110.410777 
C 469.299842 109.473142 469.826674 108.201258 469.826674 106.875243 
C 469.826674 105.549227 469.299842 104.277343 468.362208 103.339709 
C 467.424573 102.402074 466.152689 101.875243 464.826674 101.875243 
C 463.500658 101.875243 462.228775 102.402074 461.29114 103.339709 
C 460.353505 104.277343 459.826674 105.549227 459.826674 106.875243 
C 459.826674 108.201258 460.353505 109.473142 461.29114 110.410777 
C 462.228775 111.348411 463.500658 111.875243 464.826674 111.875243 
z
" clip-path="url(#p1770e4f795)" style="fill: #1f77b4; fill-opacity: 0.7; stroke: #ffffff; stroke-opacity: 0.7; stroke-width: 1.047507"/>
    <path d="M 66.728011 500.503222 
C 68.815847 500.503222 70.818452 499.673716 72.294775 498.197393 
C 73.771098 496.72107 74.600604 494.718465 74.600604 492.630629 
C 74.600604 490.542793 73.771098 488.540189 72.294775 487.063866 
C 70.818452 485.587543 68.815847 484.758037 66.728011 484.758037 
C 64.640175 484.758037 62.637571 485.587543 61.161248 487.063866 
C 59.684925 488.540189 58.855419 490.542793 58.855419 492.630629 
C 58.855419 494.718465 59.684925 496.72107 61.161248 498.197393 
C 62.637571 499.673716 64.640175 500.503222 66.728011 500.503222 
z
" clip-path="url(#p1770e4f795)" style="fill: #1f77b4; fill-opacity: 0.7; stroke: #ffffff; stroke-opacity: 0.7; stroke-width: 1.047507"/>
    <path d="M 73.205494 518.157961 
C 75.128474 518.157961 76.972953 517.393953 78.332706 516.0342 
C 79.692458 514.674448 80.456466 512.829969 80.456466 510.906989 
C 80.456466 508.984008 79.692458 507.139529 78.332706 505.779777 
C 76.972953 504.420024 75.128474 503.656016 73.205494 503.656016 
C 71.282514 503.656016 69.438035 504.420024 68.078282 505.779777 
C 66.71853 507.139529 65.954522 508.984008 65.954522 510.906989 
C 65.954522 512.829969 66.71853 514.674448 68.078282 516.0342 
C 69.438035 517.393953 71.282514 518.157961 73.205494 518.157961 
z
" clip-path="url(#p1770e4f795)" style="fill: #1f77b4; fill-opacity: 0.7; stroke: #ffffff; stroke-opacity: 0.7; stroke-width: 1.047507"/>
    <path d="M 135.59645 425.563677 
C 137.339049 425.563677 139.010509 424.871336 140.242712 423.639133 
C 141.474915 422.40693 142.167256 420.73547 142.167256 418.992872 
C 142.167256 417.250274 141.474915 415.578813 140.242712 414.34661 
C 139.010509 413.114407 137.339049 412.422066 135.59645 412.422066 
C 133.853852 412.422066 132.182392 413.114407 130.950189 414.34661 
C 129.717986 415.578813 129.025645 417.250274 129.025645 418.992872 
C 129.025645 420.73547 129.717986 422.40693 130.950189 423.639133 
C 132.182392 424.871336 133.853852 425.563677 135.59645 425.563677 
z
" clip-path="url(#p1770e4f795)" style="fill: #1f77b4; fill-opacity: 0.7; stroke: #ffffff; stroke-opacity: 0.7; stroke-width: 1.047507"/>
   </g>
   <g id="matplotlib.axis_1">
    <g id="xtick_1">
     <g id="line2d_1">
      <defs>
       <path id="m5b3e854b88" d="M 0 0 
L 0 3.5 
" style="stroke: #000000; stroke-width: 0.8"/>
      </defs>
      <g>
       <use xlink:href="#m5b3e854b88" x="52.731568" y="533.93875" style="stroke: #000000; stroke-width: 0.8"/>
      </g>
     </g>
     <g id="text_1">
      <!-- 1.2 -->
      <g transform="translate(44.780006 548.537187) scale(0.1 -0.1)">
       <defs>
        <path id="DejaVuSans-31" d="M 794 531 
L 1825 531 
L 1825 4091 
L 703 3866 
L 703 4441 
L 1819 4666 
L 2450 4666 
L 2450 531 
L 3481 531 
L 3481 0 
L 794 0 
L 794 531 
z
" transform="scale(0.015625)"/>
        <path id="DejaVuSans-2e" d="M 684 794 
L 1344 794 
L 1344 0 
L 684 0 
L 684 794 
z
" transform="scale(0.015625)"/>
        <path id="DejaVuSans-32" d="M 1228 531 
L 3431 531 
L 3431 0 
L 469 0 
L 469 531 
Q 828 903 1448 1529 
Q 2069 2156 2228 2338 
Q 2531 2678 2651 2914 
Q 2772 3150 2772 3378 
Q 2772 3750 2511 3984 
Q 2250 4219 1831 4219 
Q 1534 4219 1204 4116 
Q 875 4013 500 3803 
L 500 4441 
Q 881 4594 1212 4672 
Q 1544 4750 1819 4750 
Q 2544 4750 2975 4387 
Q 3406 4025 3406 3419 
Q 3406 3131 3298 2873 
Q 3191 2616 2906 2266 
Q 2828 2175 2409 1742 
Q 1991 1309 1228 531 
z
" transform="scale(0.015625)"/>
       </defs>
       <use xlink:href="#DejaVuSans-31"/>
       <use xlink:href="#DejaVuSans-2e" x="63.623047"/>
       <use xlink:href="#DejaVuSans-32" x="95.410156"/>
      </g>
     </g>
    </g>
    <g id="xtick_2">
     <g id="line2d_2">
      <g>
       <use xlink:href="#m5b3e854b88" x="142.501857" y="533.93875" style="stroke: #000000; stroke-width: 0.8"/>
      </g>
     </g>
     <g id="text_2">
      <!-- 1.4 -->
      <g transform="translate(134.550295 548.537187) scale(0.1 -0.1)">
       <defs>
        <path id="DejaVuSans-34" d="M 2419 4116 
L 825 1625 
L 2419 1625 
L 2419 4116 
z
M 2253 4666 
L 3047 4666 
L 3047 1625 
L 3713 1625 
L 3713 1100 
L 3047 1100 
L 3047 0 
L 2419 0 
L 2419 1100 
L 313 1100 
L 313 1709 
L 2253 4666 
z
" transform="scale(0.015625)"/>
       </defs>
       <use xlink:href="#DejaVuSans-31"/>
       <use xlink:href="#DejaVuSans-2e" x="63.623047"/>
       <use xlink:href="#DejaVuSans-34" x="95.410156"/>
      </g>
     </g>
    </g>
    <g id="xtick_3">
     <g id="line2d_3">
      <g>
       <use xlink:href="#m5b3e854b88" x="232.272146" y="533.93875" style="stroke: #000000; stroke-width: 0.8"/>
      </g>
     </g>
     <g id="text_3">
      <!-- 1.6 -->
      <g transform="translate(224.320584 548.537187) scale(0.1 -0.1)">
       <defs>
        <path id="DejaVuSans-36" d="M 2113 2584 
Q 1688 2584 1439 2293 
Q 1191 2003 1191 1497 
Q 1191 994 1439 701 
Q 1688 409 2113 409 
Q 2538 409 2786 701 
Q 3034 994 3034 1497 
Q 3034 2003 2786 2293 
Q 2538 2584 2113 2584 
z
M 3366 4563 
L 3366 3988 
Q 3128 4100 2886 4159 
Q 2644 4219 2406 4219 
Q 1781 4219 1451 3797 
Q 1122 3375 1075 2522 
Q 1259 2794 1537 2939 
Q 1816 3084 2150 3084 
Q 2853 3084 3261 2657 
Q 3669 2231 3669 1497 
Q 3669 778 3244 343 
Q 2819 -91 2113 -91 
Q 1303 -91 875 529 
Q 447 1150 447 2328 
Q 447 3434 972 4092 
Q 1497 4750 2381 4750 
Q 2619 4750 2861 4703 
Q 3103 4656 3366 4563 
z
" transform="scale(0.015625)"/>
       </defs>
       <use xlink:href="#DejaVuSans-31"/>
       <use xlink:href="#DejaVuSans-2e" x="63.623047"/>
       <use xlink:href="#DejaVuSans-36" x="95.410156"/>
      </g>
     </g>
    </g>
    <g id="xtick_4">
     <g id="line2d_4">
      <g>
       <use xlink:href="#m5b3e854b88" x="322.042435" y="533.93875" style="stroke: #000000; stroke-width: 0.8"/>
      </g>
     </g>
     <g id="text_4">
      <!-- 1.8 -->
      <g transform="translate(314.090872 548.537187) scale(0.1 -0.1)">
       <defs>
        <path id="DejaVuSans-38" d="M 2034 2216 
Q 1584 2216 1326 1975 
Q 1069 1734 1069 1313 
Q 1069 891 1326 650 
Q 1584 409 2034 409 
Q 2484 409 2743 651 
Q 3003 894 3003 1313 
Q 3003 1734 2745 1975 
Q 2488 2216 2034 2216 
z
M 1403 2484 
Q 997 2584 770 2862 
Q 544 3141 544 3541 
Q 544 4100 942 4425 
Q 1341 4750 2034 4750 
Q 2731 4750 3128 4425 
Q 3525 4100 3525 3541 
Q 3525 3141 3298 2862 
Q 3072 2584 2669 2484 
Q 3125 2378 3379 2068 
Q 3634 1759 3634 1313 
Q 3634 634 3220 271 
Q 2806 -91 2034 -91 
Q 1263 -91 848 271 
Q 434 634 434 1313 
Q 434 1759 690 2068 
Q 947 2378 1403 2484 
z
M 1172 3481 
Q 1172 3119 1398 2916 
Q 1625 2713 2034 2713 
Q 2441 2713 2670 2916 
Q 2900 3119 2900 3481 
Q 2900 3844 2670 4047 
Q 2441 4250 2034 4250 
Q 1625 4250 1398 4047 
Q 1172 3844 1172 3481 
z
" transform="scale(0.015625)"/>
       </defs>
       <use xlink:href="#DejaVuSans-31"/>
       <use xlink:href="#DejaVuSans-2e" x="63.623047"/>
       <use xlink:href="#DejaVuSans-38" x="95.410156"/>
      </g>
     </g>
    </g>
    <g id="xtick_5">
     <g id="line2d_5">
      <g>
       <use xlink:href="#m5b3e854b88" x="411.812724" y="533.93875" style="stroke: #000000; stroke-width: 0.8"/>
      </g>
     </g>
     <g id="text_5">
      <!-- 2.0 -->
      <g transform="translate(403.861161 548.537187) scale(0.1 -0.1)">
       <defs>
        <path id="DejaVuSans-30" d="M 2034 4250 
Q 1547 4250 1301 3770 
Q 1056 3291 1056 2328 
Q 1056 1369 1301 889 
Q 1547 409 2034 409 
Q 2525 409 2770 889 
Q 3016 1369 3016 2328 
Q 3016 3291 2770 3770 
Q 2525 4250 2034 4250 
z
M 2034 4750 
Q 2819 4750 3233 4129 
Q 3647 3509 3647 2328 
Q 3647 1150 3233 529 
Q 2819 -91 2034 -91 
Q 1250 -91 836 529 
Q 422 1150 422 2328 
Q 422 3509 836 4129 
Q 1250 4750 2034 4750 
z
" transform="scale(0.015625)"/>
       </defs>
       <use xlink:href="#DejaVuSans-32"/>
       <use xlink:href="#DejaVuSans-2e" x="63.623047"/>
       <use xlink:href="#DejaVuSans-30" x="95.410156"/>
      </g>
     </g>
    </g>
    <g id="xtick_6">
     <g id="line2d_6">
      <g>
       <use xlink:href="#m5b3e854b88" x="501.583013" y="533.93875" style="stroke: #000000; stroke-width: 0.8"/>
      </g>
     </g>
     <g id="text_6">
      <!-- 2.2 -->
      <g transform="translate(493.63145 548.537187) scale(0.1 -0.1)">
       <use xlink:href="#DejaVuSans-32"/>
       <use xlink:href="#DejaVuSans-2e" x="63.623047"/>
       <use xlink:href="#DejaVuSans-32" x="95.410156"/>
      </g>
     </g>
    </g>
    <g id="text_7">
     <!-- goals_per_game -->
     <g transform="translate(246.512812 562.215312) scale(0.1 -0.1)">
      <defs>
       <path id="DejaVuSans-67" d="M 2906 1791 
Q 2906 2416 2648 2759 
Q 2391 3103 1925 3103 
Q 1463 3103 1205 2759 
Q 947 2416 947 1791 
Q 947 1169 1205 825 
Q 1463 481 1925 481 
Q 2391 481 2648 825 
Q 2906 1169 2906 1791 
z
M 3481 434 
Q 3481 -459 3084 -895 
Q 2688 -1331 1869 -1331 
Q 1566 -1331 1297 -1286 
Q 1028 -1241 775 -1147 
L 775 -588 
Q 1028 -725 1275 -790 
Q 1522 -856 1778 -856 
Q 2344 -856 2625 -561 
Q 2906 -266 2906 331 
L 2906 616 
Q 2728 306 2450 153 
Q 2172 0 1784 0 
Q 1141 0 747 490 
Q 353 981 353 1791 
Q 353 2603 747 3093 
Q 1141 3584 1784 3584 
Q 2172 3584 2450 3431 
Q 2728 3278 2906 2969 
L 2906 3500 
L 3481 3500 
L 3481 434 
z
" transform="scale(0.015625)"/>
       <path id="DejaVuSans-6f" d="M 1959 3097 
Q 1497 3097 1228 2736 
Q 959 2375 959 1747 
Q 959 1119 1226 758 
Q 1494 397 1959 397 
Q 2419 397 2687 759 
Q 2956 1122 2956 1747 
Q 2956 2369 2687 2733 
Q 2419 3097 1959 3097 
z
M 1959 3584 
Q 2709 3584 3137 3096 
Q 3566 2609 3566 1747 
Q 3566 888 3137 398 
Q 2709 -91 1959 -91 
Q 1206 -91 779 398 
Q 353 888 353 1747 
Q 353 2609 779 3096 
Q 1206 3584 1959 3584 
z
" transform="scale(0.015625)"/>
       <path id="DejaVuSans-61" d="M 2194 1759 
Q 1497 1759 1228 1600 
Q 959 1441 959 1056 
Q 959 750 1161 570 
Q 1363 391 1709 391 
Q 2188 391 2477 730 
Q 2766 1069 2766 1631 
L 2766 1759 
L 2194 1759 
z
M 3341 1997 
L 3341 0 
L 2766 0 
L 2766 531 
Q 2569 213 2275 61 
Q 1981 -91 1556 -91 
Q 1019 -91 701 211 
Q 384 513 384 1019 
Q 384 1609 779 1909 
Q 1175 2209 1959 2209 
L 2766 2209 
L 2766 2266 
Q 2766 2663 2505 2880 
Q 2244 3097 1772 3097 
Q 1472 3097 1187 3025 
Q 903 2953 641 2809 
L 641 3341 
Q 956 3463 1253 3523 
Q 1550 3584 1831 3584 
Q 2591 3584 2966 3190 
Q 3341 2797 3341 1997 
z
" transform="scale(0.015625)"/>
       <path id="DejaVuSans-6c" d="M 603 4863 
L 1178 4863 
L 1178 0 
L 603 0 
L 603 4863 
z
" transform="scale(0.015625)"/>
       <path id="DejaVuSans-73" d="M 2834 3397 
L 2834 2853 
Q 2591 2978 2328 3040 
Q 2066 3103 1784 3103 
Q 1356 3103 1142 2972 
Q 928 2841 928 2578 
Q 928 2378 1081 2264 
Q 1234 2150 1697 2047 
L 1894 2003 
Q 2506 1872 2764 1633 
Q 3022 1394 3022 966 
Q 3022 478 2636 193 
Q 2250 -91 1575 -91 
Q 1294 -91 989 -36 
Q 684 19 347 128 
L 347 722 
Q 666 556 975 473 
Q 1284 391 1588 391 
Q 1994 391 2212 530 
Q 2431 669 2431 922 
Q 2431 1156 2273 1281 
Q 2116 1406 1581 1522 
L 1381 1569 
Q 847 1681 609 1914 
Q 372 2147 372 2553 
Q 372 3047 722 3315 
Q 1072 3584 1716 3584 
Q 2034 3584 2315 3537 
Q 2597 3491 2834 3397 
z
" transform="scale(0.015625)"/>
       <path id="DejaVuSans-5f" d="M 3263 -1063 
L 3263 -1509 
L -63 -1509 
L -63 -1063 
L 3263 -1063 
z
" transform="scale(0.015625)"/>
       <path id="DejaVuSans-70" d="M 1159 525 
L 1159 -1331 
L 581 -1331 
L 581 3500 
L 1159 3500 
L 1159 2969 
Q 1341 3281 1617 3432 
Q 1894 3584 2278 3584 
Q 2916 3584 3314 3078 
Q 3713 2572 3713 1747 
Q 3713 922 3314 415 
Q 2916 -91 2278 -91 
Q 1894 -91 1617 61 
Q 1341 213 1159 525 
z
M 3116 1747 
Q 3116 2381 2855 2742 
Q 2594 3103 2138 3103 
Q 1681 3103 1420 2742 
Q 1159 2381 1159 1747 
Q 1159 1113 1420 752 
Q 1681 391 2138 391 
Q 2594 391 2855 752 
Q 3116 1113 3116 1747 
z
" transform="scale(0.015625)"/>
       <path id="DejaVuSans-65" d="M 3597 1894 
L 3597 1613 
L 953 1613 
Q 991 1019 1311 708 
Q 1631 397 2203 397 
Q 2534 397 2845 478 
Q 3156 559 3463 722 
L 3463 178 
Q 3153 47 2828 -22 
Q 2503 -91 2169 -91 
Q 1331 -91 842 396 
Q 353 884 353 1716 
Q 353 2575 817 3079 
Q 1281 3584 2069 3584 
Q 2775 3584 3186 3129 
Q 3597 2675 3597 1894 
z
M 3022 2063 
Q 3016 2534 2758 2815 
Q 2500 3097 2075 3097 
Q 1594 3097 1305 2825 
Q 1016 2553 972 2059 
L 3022 2063 
z
" transform="scale(0.015625)"/>
       <path id="DejaVuSans-72" d="M 2631 2963 
Q 2534 3019 2420 3045 
Q 2306 3072 2169 3072 
Q 1681 3072 1420 2755 
Q 1159 2438 1159 1844 
L 1159 0 
L 581 0 
L 581 3500 
L 1159 3500 
L 1159 2956 
Q 1341 3275 1631 3429 
Q 1922 3584 2338 3584 
Q 2397 3584 2469 3576 
Q 2541 3569 2628 3553 
L 2631 2963 
z
" transform="scale(0.015625)"/>
       <path id="DejaVuSans-6d" d="M 3328 2828 
Q 3544 3216 3844 3400 
Q 4144 3584 4550 3584 
Q 5097 3584 5394 3201 
Q 5691 2819 5691 2113 
L 5691 0 
L 5113 0 
L 5113 2094 
Q 5113 2597 4934 2840 
Q 4756 3084 4391 3084 
Q 3944 3084 3684 2787 
Q 3425 2491 3425 1978 
L 3425 0 
L 2847 0 
L 2847 2094 
Q 2847 2600 2669 2842 
Q 2491 3084 2119 3084 
Q 1678 3084 1418 2786 
Q 1159 2488 1159 1978 
L 1159 0 
L 581 0 
L 581 3500 
L 1159 3500 
L 1159 2956 
Q 1356 3278 1631 3431 
Q 1906 3584 2284 3584 
Q 2666 3584 2933 3390 
Q 3200 3197 3328 2828 
z
" transform="scale(0.015625)"/>
      </defs>
      <use xlink:href="#DejaVuSans-67"/>
      <use xlink:href="#DejaVuSans-6f" x="63.476562"/>
      <use xlink:href="#DejaVuSans-61" x="124.658203"/>
      <use xlink:href="#DejaVuSans-6c" x="185.9375"/>
      <use xlink:href="#DejaVuSans-73" x="213.720703"/>
      <use xlink:href="#DejaVuSans-5f" x="265.820312"/>
      <use xlink:href="#DejaVuSans-70" x="315.820312"/>
      <use xlink:href="#DejaVuSans-65" x="379.296875"/>
      <use xlink:href="#DejaVuSans-72" x="440.820312"/>
      <use xlink:href="#DejaVuSans-5f" x="481.933594"/>
      <use xlink:href="#DejaVuSans-67" x="531.933594"/>
      <use xlink:href="#DejaVuSans-61" x="595.410156"/>
      <use xlink:href="#DejaVuSans-6d" x="656.689453"/>
      <use xlink:href="#DejaVuSans-65" x="754.101562"/>
     </g>
    </g>
   </g>
   <g id="matplotlib.axis_2">
    <g id="ytick_1">
     <g id="line2d_7">
      <defs>
       <path id="m45e7f0fd22" d="M 0 0 
L -3.5 0 
" style="stroke: #000000; stroke-width: 0.8"/>
      </defs>
      <g>
       <use xlink:href="#m45e7f0fd22" x="44.67125" y="491.743428" style="stroke: #000000; stroke-width: 0.8"/>
      </g>
     </g>
     <g id="text_8">
      <!-- 35 -->
      <g transform="translate(24.94625 495.542646) scale(0.1 -0.1)">
       <defs>
        <path id="DejaVuSans-33" d="M 2597 2516 
Q 3050 2419 3304 2112 
Q 3559 1806 3559 1356 
Q 3559 666 3084 287 
Q 2609 -91 1734 -91 
Q 1441 -91 1130 -33 
Q 819 25 488 141 
L 488 750 
Q 750 597 1062 519 
Q 1375 441 1716 441 
Q 2309 441 2620 675 
Q 2931 909 2931 1356 
Q 2931 1769 2642 2001 
Q 2353 2234 1838 2234 
L 1294 2234 
L 1294 2753 
L 1863 2753 
Q 2328 2753 2575 2939 
Q 2822 3125 2822 3475 
Q 2822 3834 2567 4026 
Q 2313 4219 1838 4219 
Q 1578 4219 1281 4162 
Q 984 4106 628 3988 
L 628 4550 
Q 988 4650 1302 4700 
Q 1616 4750 1894 4750 
Q 2613 4750 3031 4423 
Q 3450 4097 3450 3541 
Q 3450 3153 3228 2886 
Q 3006 2619 2597 2516 
z
" transform="scale(0.015625)"/>
        <path id="DejaVuSans-35" d="M 691 4666 
L 3169 4666 
L 3169 4134 
L 1269 4134 
L 1269 2991 
Q 1406 3038 1543 3061 
Q 1681 3084 1819 3084 
Q 2600 3084 3056 2656 
Q 3513 2228 3513 1497 
Q 3513 744 3044 326 
Q 2575 -91 1722 -91 
Q 1428 -91 1123 -41 
Q 819 9 494 109 
L 494 744 
Q 775 591 1075 516 
Q 1375 441 1709 441 
Q 2250 441 2565 725 
Q 2881 1009 2881 1497 
Q 2881 1984 2565 2268 
Q 2250 2553 1709 2553 
Q 1456 2553 1204 2497 
Q 953 2441 691 2322 
L 691 4666 
z
" transform="scale(0.015625)"/>
       </defs>
       <use xlink:href="#DejaVuSans-33"/>
       <use xlink:href="#DejaVuSans-35" x="63.623047"/>
      </g>
     </g>
    </g>
    <g id="ytick_2">
     <g id="line2d_8">
      <g>
       <use xlink:href="#m45e7f0fd22" x="44.67125" y="403.023237" style="stroke: #000000; stroke-width: 0.8"/>
      </g>
     </g>
     <g id="text_9">
      <!-- 40 -->
      <g transform="translate(24.94625 406.822456) scale(0.1 -0.1)">
       <use xlink:href="#DejaVuSans-34"/>
       <use xlink:href="#DejaVuSans-30" x="63.623047"/>
      </g>
     </g>
    </g>
    <g id="ytick_3">
     <g id="line2d_9">
      <g>
       <use xlink:href="#m45e7f0fd22" x="44.67125" y="314.303047" style="stroke: #000000; stroke-width: 0.8"/>
      </g>
     </g>
     <g id="text_10">
      <!-- 45 -->
      <g transform="translate(24.94625 318.102266) scale(0.1 -0.1)">
       <use xlink:href="#DejaVuSans-34"/>
       <use xlink:href="#DejaVuSans-35" x="63.623047"/>
      </g>
     </g>
    </g>
    <g id="ytick_4">
     <g id="line2d_10">
      <g>
       <use xlink:href="#m45e7f0fd22" x="44.67125" y="225.582857" style="stroke: #000000; stroke-width: 0.8"/>
      </g>
     </g>
     <g id="text_11">
      <!-- 50 -->
      <g transform="translate(24.94625 229.382076) scale(0.1 -0.1)">
       <use xlink:href="#DejaVuSans-35"/>
       <use xlink:href="#DejaVuSans-30" x="63.623047"/>
      </g>
     </g>
    </g>
    <g id="ytick_5">
     <g id="line2d_11">
      <g>
       <use xlink:href="#m45e7f0fd22" x="44.67125" y="136.862667" style="stroke: #000000; stroke-width: 0.8"/>
      </g>
     </g>
     <g id="text_12">
      <!-- 55 -->
      <g transform="translate(24.94625 140.661886) scale(0.1 -0.1)">
       <use xlink:href="#DejaVuSans-35"/>
       <use xlink:href="#DejaVuSans-35" x="63.623047"/>
      </g>
     </g>
    </g>
    <g id="ytick_6">
     <g id="line2d_12">
      <g>
       <use xlink:href="#m45e7f0fd22" x="44.67125" y="48.142477" style="stroke: #000000; stroke-width: 0.8"/>
      </g>
     </g>
     <g id="text_13">
      <!-- 60 -->
      <g transform="translate(24.94625 51.941696) scale(0.1 -0.1)">
       <use xlink:href="#DejaVuSans-36"/>
       <use xlink:href="#DejaVuSans-30" x="63.623047"/>
      </g>
     </g>
    </g>
    <g id="text_14">
     <!-- win_percentage -->
     <g transform="translate(18.588437 320.199531) rotate(-90) scale(0.1 -0.1)">
      <defs>
       <path id="DejaVuSans-77" d="M 269 3500 
L 844 3500 
L 1563 769 
L 2278 3500 
L 2956 3500 
L 3675 769 
L 4391 3500 
L 4966 3500 
L 4050 0 
L 3372 0 
L 2619 2869 
L 1863 0 
L 1184 0 
L 269 3500 
z
" transform="scale(0.015625)"/>
       <path id="DejaVuSans-69" d="M 603 3500 
L 1178 3500 
L 1178 0 
L 603 0 
L 603 3500 
z
M 603 4863 
L 1178 4863 
L 1178 4134 
L 603 4134 
L 603 4863 
z
" transform="scale(0.015625)"/>
       <path id="DejaVuSans-6e" d="M 3513 2113 
L 3513 0 
L 2938 0 
L 2938 2094 
Q 2938 2591 2744 2837 
Q 2550 3084 2163 3084 
Q 1697 3084 1428 2787 
Q 1159 2491 1159 1978 
L 1159 0 
L 581 0 
L 581 3500 
L 1159 3500 
L 1159 2956 
Q 1366 3272 1645 3428 
Q 1925 3584 2291 3584 
Q 2894 3584 3203 3211 
Q 3513 2838 3513 2113 
z
" transform="scale(0.015625)"/>
       <path id="DejaVuSans-63" d="M 3122 3366 
L 3122 2828 
Q 2878 2963 2633 3030 
Q 2388 3097 2138 3097 
Q 1578 3097 1268 2742 
Q 959 2388 959 1747 
Q 959 1106 1268 751 
Q 1578 397 2138 397 
Q 2388 397 2633 464 
Q 2878 531 3122 666 
L 3122 134 
Q 2881 22 2623 -34 
Q 2366 -91 2075 -91 
Q 1284 -91 818 406 
Q 353 903 353 1747 
Q 353 2603 823 3093 
Q 1294 3584 2113 3584 
Q 2378 3584 2631 3529 
Q 2884 3475 3122 3366 
z
" transform="scale(0.015625)"/>
       <path id="DejaVuSans-74" d="M 1172 4494 
L 1172 3500 
L 2356 3500 
L 2356 3053 
L 1172 3053 
L 1172 1153 
Q 1172 725 1289 603 
Q 1406 481 1766 481 
L 2356 481 
L 2356 0 
L 1766 0 
Q 1100 0 847 248 
Q 594 497 594 1153 
L 594 3053 
L 172 3053 
L 172 3500 
L 594 3500 
L 594 4494 
L 1172 4494 
z
" transform="scale(0.015625)"/>
      </defs>
      <use xlink:href="#DejaVuSans-77"/>
      <use xlink:href="#DejaVuSans-69" x="81.787109"/>
      <use xlink:href="#DejaVuSans-6e" x="109.570312"/>
      <use xlink:href="#DejaVuSans-5f" x="172.949219"/>
      <use xlink:href="#DejaVuSans-70" x="222.949219"/>
      <use xlink:href="#DejaVuSans-65" x="286.425781"/>
      <use xlink:href="#DejaVuSans-72" x="347.949219"/>
      <use xlink:href="#DejaVuSans-63" x="386.8125"/>
      <use xlink:href="#DejaVuSans-65" x="441.792969"/>
      <use xlink:href="#DejaVuSans-6e" x="503.316406"/>
      <use xlink:href="#DejaVuSans-74" x="566.695312"/>
      <use xlink:href="#DejaVuSans-61" x="605.904297"/>
      <use xlink:href="#DejaVuSans-67" x="667.183594"/>
      <use xlink:href="#DejaVuSans-65" x="730.660156"/>
     </g>
    </g>
   </g>
   <g id="line2d_13"/>
   <g id="line2d_14"/>
   <g id="line2d_15"/>
   <g id="line2d_16"/>
   <g id="line2d_17"/>
   <g id="line2d_18"/>
   <g id="patch_3">
    <path d="M 44.67125 533.93875 
L 44.67125 27.24 
" style="fill: none; stroke: #000000; stroke-width: 0.8; stroke-linejoin: miter; stroke-linecap: square"/>
   </g>
   <g id="patch_4">
    <path d="M 529.92 533.93875 
L 529.92 27.24 
" style="fill: none; stroke: #000000; stroke-width: 0.8; stroke-linejoin: miter; stroke-linecap: square"/>
   </g>
   <g id="patch_5">
    <path d="M 44.67125 533.93875 
L 529.92 533.93875 
" style="fill: none; stroke: #000000; stroke-width: 0.8; stroke-linejoin: miter; stroke-linecap: square"/>
   </g>
   <g id="patch_6">
    <path d="M 44.67125 27.24 
L 529.92 27.24 
" style="fill: none; stroke: #000000; stroke-width: 0.8; stroke-linejoin: miter; stroke-linecap: square"/>
   </g>
   <g id="text_15">
    <!-- Buts Marqués par Match vs Pourcentage de Victoires -->
    <g transform="translate(129.164687 21.24) scale(0.12 -0.12)">
     <defs>
      <path id="DejaVuSans-42" d="M 1259 2228 
L 1259 519 
L 2272 519 
Q 2781 519 3026 730 
Q 3272 941 3272 1375 
Q 3272 1813 3026 2020 
Q 2781 2228 2272 2228 
L 1259 2228 
z
M 1259 4147 
L 1259 2741 
L 2194 2741 
Q 2656 2741 2882 2914 
Q 3109 3088 3109 3444 
Q 3109 3797 2882 3972 
Q 2656 4147 2194 4147 
L 1259 4147 
z
M 628 4666 
L 2241 4666 
Q 2963 4666 3353 4366 
Q 3744 4066 3744 3513 
Q 3744 3084 3544 2831 
Q 3344 2578 2956 2516 
Q 3422 2416 3680 2098 
Q 3938 1781 3938 1306 
Q 3938 681 3513 340 
Q 3088 0 2303 0 
L 628 0 
L 628 4666 
z
" transform="scale(0.015625)"/>
      <path id="DejaVuSans-75" d="M 544 1381 
L 544 3500 
L 1119 3500 
L 1119 1403 
Q 1119 906 1312 657 
Q 1506 409 1894 409 
Q 2359 409 2629 706 
Q 2900 1003 2900 1516 
L 2900 3500 
L 3475 3500 
L 3475 0 
L 2900 0 
L 2900 538 
Q 2691 219 2414 64 
Q 2138 -91 1772 -91 
Q 1169 -91 856 284 
Q 544 659 544 1381 
z
M 1991 3584 
L 1991 3584 
z
" transform="scale(0.015625)"/>
      <path id="DejaVuSans-20" transform="scale(0.015625)"/>
      <path id="DejaVuSans-4d" d="M 628 4666 
L 1569 4666 
L 2759 1491 
L 3956 4666 
L 4897 4666 
L 4897 0 
L 4281 0 
L 4281 4097 
L 3078 897 
L 2444 897 
L 1241 4097 
L 1241 0 
L 628 0 
L 628 4666 
z
" transform="scale(0.015625)"/>
      <path id="DejaVuSans-71" d="M 947 1747 
Q 947 1113 1208 752 
Q 1469 391 1925 391 
Q 2381 391 2643 752 
Q 2906 1113 2906 1747 
Q 2906 2381 2643 2742 
Q 2381 3103 1925 3103 
Q 1469 3103 1208 2742 
Q 947 2381 947 1747 
z
M 2906 525 
Q 2725 213 2448 61 
Q 2172 -91 1784 -91 
Q 1150 -91 751 415 
Q 353 922 353 1747 
Q 353 2572 751 3078 
Q 1150 3584 1784 3584 
Q 2172 3584 2448 3432 
Q 2725 3281 2906 2969 
L 2906 3500 
L 3481 3500 
L 3481 -1331 
L 2906 -1331 
L 2906 525 
z
" transform="scale(0.015625)"/>
      <path id="DejaVuSans-e9" d="M 3597 1894 
L 3597 1613 
L 953 1613 
Q 991 1019 1311 708 
Q 1631 397 2203 397 
Q 2534 397 2845 478 
Q 3156 559 3463 722 
L 3463 178 
Q 3153 47 2828 -22 
Q 2503 -91 2169 -91 
Q 1331 -91 842 396 
Q 353 884 353 1716 
Q 353 2575 817 3079 
Q 1281 3584 2069 3584 
Q 2775 3584 3186 3129 
Q 3597 2675 3597 1894 
z
M 3022 2063 
Q 3016 2534 2758 2815 
Q 2500 3097 2075 3097 
Q 1594 3097 1305 2825 
Q 1016 2553 972 2059 
L 3022 2063 
z
M 2466 5119 
L 3088 5119 
L 2070 3944 
L 1591 3944 
L 2466 5119 
z
" transform="scale(0.015625)"/>
      <path id="DejaVuSans-68" d="M 3513 2113 
L 3513 0 
L 2938 0 
L 2938 2094 
Q 2938 2591 2744 2837 
Q 2550 3084 2163 3084 
Q 1697 3084 1428 2787 
Q 1159 2491 1159 1978 
L 1159 0 
L 581 0 
L 581 4863 
L 1159 4863 
L 1159 2956 
Q 1366 3272 1645 3428 
Q 1925 3584 2291 3584 
Q 2894 3584 3203 3211 
Q 3513 2838 3513 2113 
z
" transform="scale(0.015625)"/>
      <path id="DejaVuSans-76" d="M 191 3500 
L 800 3500 
L 1894 563 
L 2988 3500 
L 3597 3500 
L 2284 0 
L 1503 0 
L 191 3500 
z
" transform="scale(0.015625)"/>
      <path id="DejaVuSans-50" d="M 1259 4147 
L 1259 2394 
L 2053 2394 
Q 2494 2394 2734 2622 
Q 2975 2850 2975 3272 
Q 2975 3691 2734 3919 
Q 2494 4147 2053 4147 
L 1259 4147 
z
M 628 4666 
L 2053 4666 
Q 2838 4666 3239 4311 
Q 3641 3956 3641 3272 
Q 3641 2581 3239 2228 
Q 2838 1875 2053 1875 
L 1259 1875 
L 1259 0 
L 628 0 
L 628 4666 
z
" transform="scale(0.015625)"/>
      <path id="DejaVuSans-64" d="M 2906 2969 
L 2906 4863 
L 3481 4863 
L 3481 0 
L 2906 0 
L 2906 525 
Q 2725 213 2448 61 
Q 2172 -91 1784 -91 
Q 1150 -91 751 415 
Q 353 922 353 1747 
Q 353 2572 751 3078 
Q 1150 3584 1784 3584 
Q 2172 3584 2448 3432 
Q 2725 3281 2906 2969 
z
M 947 1747 
Q 947 1113 1208 752 
Q 1469 391 1925 391 
Q 2381 391 2643 752 
Q 2906 1113 2906 1747 
Q 2906 2381 2643 2742 
Q 2381 3103 1925 3103 
Q 1469 3103 1208 2742 
Q 947 2381 947 1747 
z
" transform="scale(0.015625)"/>
      <path id="DejaVuSans-56" d="M 1831 0 
L 50 4666 
L 709 4666 
L 2188 738 
L 3669 4666 
L 4325 4666 
L 2547 0 
L 1831 0 
z
" transform="scale(0.015625)"/>
     </defs>
     <use xlink:href="#DejaVuSans-42"/>
     <use xlink:href="#DejaVuSans-75" x="68.603516"/>
     <use xlink:href="#DejaVuSans-74" x="131.982422"/>
     <use xlink:href="#DejaVuSans-73" x="171.191406"/>
     <use xlink:href="#DejaVuSans-20" x="223.291016"/>
     <use xlink:href="#DejaVuSans-4d" x="255.078125"/>
     <use xlink:href="#DejaVuSans-61" x="341.357422"/>
     <use xlink:href="#DejaVuSans-72" x="402.636719"/>
     <use xlink:href="#DejaVuSans-71" x="442"/>
     <use xlink:href="#DejaVuSans-75" x="505.476562"/>
     <use xlink:href="#DejaVuSans-e9" x="568.855469"/>
     <use xlink:href="#DejaVuSans-73" x="630.378906"/>
     <use xlink:href="#DejaVuSans-20" x="682.478516"/>
     <use xlink:href="#DejaVuSans-70" x="714.265625"/>
     <use xlink:href="#DejaVuSans-61" x="777.742188"/>
     <use xlink:href="#DejaVuSans-72" x="839.021484"/>
     <use xlink:href="#DejaVuSans-20" x="880.134766"/>
     <use xlink:href="#DejaVuSans-4d" x="911.921875"/>
     <use xlink:href="#DejaVuSans-61" x="998.201172"/>
     <use xlink:href="#DejaVuSans-74" x="1059.480469"/>
     <use xlink:href="#DejaVuSans-63" x="1098.689453"/>
     <use xlink:href="#DejaVuSans-68" x="1153.669922"/>
     <use xlink:href="#DejaVuSans-20" x="1217.048828"/>
     <use xlink:href="#DejaVuSans-76" x="1248.835938"/>
     <use xlink:href="#DejaVuSans-73" x="1308.015625"/>
     <use xlink:href="#DejaVuSans-20" x="1360.115234"/>
     <use xlink:href="#DejaVuSans-50" x="1391.902344"/>
     <use xlink:href="#DejaVuSans-6f" x="1448.580078"/>
     <use xlink:href="#DejaVuSans-75" x="1509.761719"/>
     <use xlink:href="#DejaVuSans-72" x="1573.140625"/>
     <use xlink:href="#DejaVuSans-63" x="1612.003906"/>
     <use xlink:href="#DejaVuSans-65" x="1666.984375"/>
     <use xlink:href="#DejaVuSans-6e" x="1728.507812"/>
     <use xlink:href="#DejaVuSans-74" x="1791.886719"/>
     <use xlink:href="#DejaVuSans-61" x="1831.095703"/>
     <use xlink:href="#DejaVuSans-67" x="1892.375"/>
     <use xlink:href="#DejaVuSans-65" x="1955.851562"/>
     <use xlink:href="#DejaVuSans-20" x="2017.375"/>
     <use xlink:href="#DejaVuSans-64" x="2049.162109"/>
     <use xlink:href="#DejaVuSans-65" x="2112.638672"/>
     <use xlink:href="#DejaVuSans-20" x="2174.162109"/>
     <use xlink:href="#DejaVuSans-56" x="2205.949219"/>
     <use xlink:href="#DejaVuSans-69" x="2272.107422"/>
     <use xlink:href="#DejaVuSans-63" x="2299.890625"/>
     <use xlink:href="#DejaVuSans-74" x="2354.871094"/>
     <use xlink:href="#DejaVuSans-6f" x="2394.080078"/>
     <use xlink:href="#DejaVuSans-69" x="2455.261719"/>
     <use xlink:href="#DejaVuSans-72" x="2483.044922"/>
     <use xlink:href="#DejaVuSans-65" x="2521.908203"/>
     <use xlink:href="#DejaVuSans-73" x="2583.431641"/>
    </g>
   </g>
   <g id="legend_1">
    <g id="patch_7">
     <path d="M 51.67125 137.986875 
L 102.75875 137.986875 
Q 104.75875 137.986875 104.75875 135.986875 
L 104.75875 34.24 
Q 104.75875 32.24 102.75875 32.24 
L 51.67125 32.24 
Q 49.67125 32.24 49.67125 34.24 
L 49.67125 135.986875 
Q 49.67125 137.986875 51.67125 137.986875 
z
" style="fill: #ffffff; opacity: 0.8; stroke: #cccccc; stroke-linejoin: miter"/>
    </g>
    <g id="text_16">
     <!-- M. -->
     <g transform="translate(71.311875 43.838438) scale(0.1 -0.1)">
      <use xlink:href="#DejaVuSans-4d"/>
      <use xlink:href="#DejaVuSans-2e" x="86.279297"/>
     </g>
    </g>
    <g id="line2d_19">
     <defs>
      <path id="m4e7392a0d5" d="M 0 7.630024 
C 2.023506 7.630024 3.964407 6.826077 5.395242 5.395242 
C 6.826077 3.964407 7.630024 2.023506 7.630024 0 
C 7.630024 -2.023506 6.826077 -3.964407 5.395242 -5.395242 
C 3.964407 -6.826077 2.023506 -7.630024 0 -7.630024 
C -2.023506 -7.630024 -3.964407 -6.826077 -5.395242 -5.395242 
C -6.826077 -3.964407 -7.630024 -2.023506 -7.630024 0 
C -7.630024 2.023506 -6.826077 3.964407 -5.395242 5.395242 
C -3.964407 6.826077 -2.023506 7.630024 0 7.630024 
z
" style="stroke: #ffffff; stroke-opacity: 0.7; stroke-width: 1.047507"/>
     </defs>
     <g>
      <use xlink:href="#m4e7392a0d5" x="63.67125" y="55.016563" style="fill: #1f77b4; fill-opacity: 0.7; stroke: #ffffff; stroke-opacity: 0.7; stroke-width: 1.047507"/>
     </g>
    </g>
    <g id="text_17">
     <!-- 180 -->
     <g transform="translate(81.67125 58.516563) scale(0.1 -0.1)">
      <use xlink:href="#DejaVuSans-31"/>
      <use xlink:href="#DejaVuSans-38" x="63.623047"/>
      <use xlink:href="#DejaVuSans-30" x="127.246094"/>
     </g>
    </g>
    <g id="line2d_20">
     <defs>
      <path id="m7c83785a4d" d="M 0 9.788857 
C 2.596035 9.788857 5.086093 8.757442 6.921767 6.921767 
C 8.757442 5.086093 9.788857 2.596035 9.788857 0 
C 9.788857 -2.596035 8.757442 -5.086093 6.921767 -6.921767 
C 5.086093 -8.757442 2.596035 -9.788857 0 -9.788857 
C -2.596035 -9.788857 -5.086093 -8.757442 -6.921767 -6.921767 
C -8.757442 -5.086093 -9.788857 -2.596035 -9.788857 0 
C -9.788857 2.596035 -8.757442 5.086093 -6.921767 6.921767 
C -5.086093 8.757442 -2.596035 9.788857 0 9.788857 
z
" style="stroke: #ffffff; stroke-opacity: 0.7; stroke-width: 1.047507"/>
     </defs>
     <g>
      <use xlink:href="#m7c83785a4d" x="63.67125" y="69.694688" style="fill: #1f77b4; fill-opacity: 0.7; stroke: #ffffff; stroke-opacity: 0.7; stroke-width: 1.047507"/>
     </g>
    </g>
    <g id="text_18">
     <!-- 240 -->
     <g transform="translate(81.67125 73.194688) scale(0.1 -0.1)">
      <use xlink:href="#DejaVuSans-32"/>
      <use xlink:href="#DejaVuSans-34" x="63.623047"/>
      <use xlink:href="#DejaVuSans-30" x="127.246094"/>
     </g>
    </g>
    <g id="line2d_21">
     <defs>
      <path id="mc0ff5dbb7a" d="M 0 11.551025 
C 3.063368 11.551025 6.00168 10.333936 8.167808 8.167808 
C 10.333936 6.00168 11.551025 3.063368 11.551025 0 
C 11.551025 -3.063368 10.333936 -6.00168 8.167808 -8.167808 
C 6.00168 -10.333936 3.063368 -11.551025 0 -11.551025 
C -3.063368 -11.551025 -6.00168 -10.333936 -8.167808 -8.167808 
C -10.333936 -6.00168 -11.551025 -3.063368 -11.551025 0 
C -11.551025 3.063368 -10.333936 6.00168 -8.167808 8.167808 
C -6.00168 10.333936 -3.063368 11.551025 0 11.551025 
z
" style="stroke: #ffffff; stroke-opacity: 0.7; stroke-width: 1.047507"/>
     </defs>
     <g>
      <use xlink:href="#mc0ff5dbb7a" x="63.67125" y="84.372813" style="fill: #1f77b4; fill-opacity: 0.7; stroke: #ffffff; stroke-opacity: 0.7; stroke-width: 1.047507"/>
     </g>
    </g>
    <g id="text_19">
     <!-- 300 -->
     <g transform="translate(81.67125 87.872813) scale(0.1 -0.1)">
      <use xlink:href="#DejaVuSans-33"/>
      <use xlink:href="#DejaVuSans-30" x="63.623047"/>
      <use xlink:href="#DejaVuSans-30" x="127.246094"/>
     </g>
    </g>
    <g id="line2d_22">
     <defs>
      <path id="m8a63727d1a" d="M 0 13.077868 
C 3.468291 13.077868 6.794997 11.699902 9.247449 9.247449 
C 11.699902 6.794997 13.077868 3.468291 13.077868 0 
C 13.077868 -3.468291 11.699902 -6.794997 9.247449 -9.247449 
C 6.794997 -11.699902 3.468291 -13.077868 0 -13.077868 
C -3.468291 -13.077868 -6.794997 -11.699902 -9.247449 -9.247449 
C -11.699902 -6.794997 -13.077868 -3.468291 -13.077868 0 
C -13.077868 3.468291 -11.699902 6.794997 -9.247449 9.247449 
C -6.794997 11.699902 -3.468291 13.077868 0 13.077868 
z
" style="stroke: #ffffff; stroke-opacity: 0.7; stroke-width: 1.047507"/>
     </defs>
     <g>
      <use xlink:href="#m8a63727d1a" x="63.67125" y="99.050938" style="fill: #1f77b4; fill-opacity: 0.7; stroke: #ffffff; stroke-opacity: 0.7; stroke-width: 1.047507"/>
     </g>
    </g>
    <g id="text_20">
     <!-- 360 -->
     <g transform="translate(81.67125 102.550938) scale(0.1 -0.1)">
      <use xlink:href="#DejaVuSans-33"/>
      <use xlink:href="#DejaVuSans-36" x="63.623047"/>
      <use xlink:href="#DejaVuSans-30" x="127.246094"/>
     </g>
    </g>
    <g id="line2d_23">
     <defs>
      <path id="m305c4fa157" d="M 0 14.444206 
C 3.830648 14.444206 7.504919 12.922274 10.213596 10.213596 
C 12.922274 7.504919 14.444206 3.830648 14.444206 0 
C 14.444206 -3.830648 12.922274 -7.504919 10.213596 -10.213596 
C 7.504919 -12.922274 3.830648 -14.444206 0 -14.444206 
C -3.830648 -14.444206 -7.504919 -12.922274 -10.213596 -10.213596 
C -12.922274 -7.504919 -14.444206 -3.830648 -14.444206 0 
C -14.444206 3.830648 -12.922274 7.504919 -10.213596 10.213596 
C -7.504919 12.922274 -3.830648 14.444206 0 14.444206 
z
" style="stroke: #ffffff; stroke-opacity: 0.7; stroke-width: 1.047507"/>
     </defs>
     <g>
      <use xlink:href="#m305c4fa157" x="63.67125" y="113.729063" style="fill: #1f77b4; fill-opacity: 0.7; stroke: #ffffff; stroke-opacity: 0.7; stroke-width: 1.047507"/>
     </g>
    </g>
    <g id="text_21">
     <!-- 420 -->
     <g transform="translate(81.67125 117.229063) scale(0.1 -0.1)">
      <use xlink:href="#DejaVuSans-34"/>
      <use xlink:href="#DejaVuSans-32" x="63.623047"/>
      <use xlink:href="#DejaVuSans-30" x="127.246094"/>
     </g>
    </g>
    <g id="line2d_24">
     <defs>
      <path id="m71c1ce31f8" d="M 0 15.692022 
C 4.161573 15.692022 8.153259 14.038612 11.095935 11.095935 
C 14.038612 8.153259 15.692022 4.161573 15.692022 0 
C 15.692022 -4.161573 14.038612 -8.153259 11.095935 -11.095935 
C 8.153259 -14.038612 4.161573 -15.692022 0 -15.692022 
C -4.161573 -15.692022 -8.153259 -14.038612 -11.095935 -11.095935 
C -14.038612 -8.153259 -15.692022 -4.161573 -15.692022 0 
C -15.692022 4.161573 -14.038612 8.153259 -11.095935 11.095935 
C -8.153259 14.038612 -4.161573 15.692022 0 15.692022 
z
" style="stroke: #ffffff; stroke-opacity: 0.7; stroke-width: 1.047507"/>
     </defs>
     <g>
      <use xlink:href="#m71c1ce31f8" x="63.67125" y="128.407188" style="fill: #1f77b4; fill-opacity: 0.7; stroke: #ffffff; stroke-opacity: 0.7; stroke-width: 1.047507"/>
     </g>
    </g>
    <g id="text_22">
     <!-- 480 -->
     <g transform="translate(81.67125 131.907188) scale(0.1 -0.1)">
      <use xlink:href="#DejaVuSans-34"/>
      <use xlink:href="#DejaVuSans-38" x="63.623047"/>
      <use xlink:href="#DejaVuSans-30" x="127.246094"/>
     </g>
    </g>
   </g>
  </g>
  <g id="axes_2">
   <g id="patch_8">
    <path d="M 583.95125 533.93875 
L 1069.2 533.93875 
L 1069.2 27.24 
L 583.95125 27.24 
z
" style="fill: #ffffff"/>
   </g>
   <g id="PathCollection_2">
    <path d="M 735.140408 472.958323 
C 739.333637 472.958323 743.355687 471.292335 746.320748 468.327275 
C 749.285809 465.362214 750.951796 461.340164 750.951796 457.146935 
C 750.951796 452.953705 749.285809 448.931656 746.320748 445.966595 
C 743.355687 443.001534 739.333637 441.335546 735.140408 441.335546 
C 730.947179 441.335546 726.925129 443.001534 723.960068 445.966595 
C 720.995007 448.931656 719.32902 452.953705 719.32902 457.146935 
C 719.32902 461.340164 720.995007 465.362214 723.960068 468.327275 
C 726.925129 471.292335 730.947179 472.958323 735.140408 472.958323 
z
" clip-path="url(#pfbb942be45)" style="fill: #1f77b4; fill-opacity: 0.7; stroke: #ffffff; stroke-opacity: 0.7; stroke-width: 1.047507"/>
    <path d="M 674.569365 516.263583 
C 678.211246 516.263583 681.704455 514.816649 684.279653 512.24145 
C 686.854852 509.666252 688.301786 506.173043 688.301786 502.531162 
C 688.301786 498.889282 686.854852 495.396073 684.279653 492.820874 
C 681.704455 490.245676 678.211246 488.798741 674.569365 488.798741 
C 670.927485 488.798741 667.434276 490.245676 664.859077 492.820874 
C 662.283879 495.396073 660.836944 498.889282 660.836944 502.531162 
C 660.836944 506.173043 662.283879 509.666252 664.859077 512.24145 
C 667.434276 514.816649 670.927485 516.263583 674.569365 516.263583 
z
" clip-path="url(#pfbb942be45)" style="fill: #1f77b4; fill-opacity: 0.7; stroke: #ffffff; stroke-opacity: 0.7; stroke-width: 1.047507"/>
    <path d="M 778.097598 523.521368 
C 781.44297 523.521368 784.651775 522.192237 787.017311 519.826702 
C 789.382847 517.461166 790.711977 514.252361 790.711977 510.906989 
C 790.711977 507.561616 789.382847 504.352811 787.017311 501.987276 
C 784.651775 499.62174 781.44297 498.292609 778.097598 498.292609 
C 774.752225 498.292609 771.54342 499.62174 769.177885 501.987276 
C 766.812349 504.352811 765.483219 507.561616 765.483219 510.906989 
C 765.483219 514.252361 766.812349 517.461166 769.177885 519.826702 
C 771.54342 522.192237 774.752225 523.521368 778.097598 523.521368 
z
" clip-path="url(#pfbb942be45)" style="fill: #1f77b4; fill-opacity: 0.7; stroke: #ffffff; stroke-opacity: 0.7; stroke-width: 1.047507"/>
    <path d="M 830.285823 457.420595 
C 833.268998 457.420595 836.130393 456.235366 838.239816 454.125943 
C 840.34924 452.016519 841.534468 449.155125 841.534468 446.171949 
C 841.534468 443.188773 840.34924 440.327379 838.239816 438.217955 
C 836.130393 436.108531 833.268998 434.923303 830.285823 434.923303 
C 827.302647 434.923303 824.441253 436.108531 822.331829 438.217955 
C 820.222405 440.327379 819.037177 443.188773 819.037177 446.171949 
C 819.037177 449.155125 820.222405 452.016519 822.331829 454.125943 
C 824.441253 456.235366 827.302647 457.420595 830.285823 457.420595 
z
" clip-path="url(#pfbb942be45)" style="fill: #1f77b4; fill-opacity: 0.7; stroke: #ffffff; stroke-opacity: 0.7; stroke-width: 1.047507"/>
    <path d="M 828.099169 396.15708 
C 831.140876 396.15708 834.058412 394.948597 836.209223 392.797786 
C 838.360035 390.646974 839.568518 387.729438 839.568518 384.687731 
C 839.568518 381.646025 838.360035 378.728489 836.209223 376.577677 
C 834.058412 374.426866 831.140876 373.218383 828.099169 373.218383 
C 825.057462 373.218383 822.139926 374.426866 819.989115 376.577677 
C 817.838303 378.728489 816.62982 381.646025 816.62982 384.687731 
C 816.62982 387.729438 817.838303 390.646974 819.989115 392.797786 
C 822.139926 394.948597 825.057462 396.15708 828.099169 396.15708 
z
" clip-path="url(#pfbb942be45)" style="fill: #1f77b4; fill-opacity: 0.7; stroke: #ffffff; stroke-opacity: 0.7; stroke-width: 1.047507"/>
    <path d="M 672.824334 399.737095 
C 675.624586 399.737095 678.310523 398.624543 680.2906 396.644466 
C 682.270677 394.66439 683.383228 391.978452 683.383228 389.178201 
C 683.383228 386.377949 682.270677 383.692012 680.2906 381.711935 
C 678.310523 379.731858 675.624586 378.619306 672.824334 378.619306 
C 670.024083 378.619306 667.338145 379.731858 665.358068 381.711935 
C 663.377991 383.692012 662.26544 386.377949 662.26544 389.178201 
C 662.26544 391.978452 663.377991 394.66439 665.358068 396.644466 
C 667.338145 398.624543 670.024083 399.737095 672.824334 399.737095 
z
" clip-path="url(#pfbb942be45)" style="fill: #1f77b4; fill-opacity: 0.7; stroke: #ffffff; stroke-opacity: 0.7; stroke-width: 1.047507"/>
    <path d="M 796.579784 449.747489 
C 799.089484 449.747489 801.496732 448.750374 803.271358 446.975748 
C 805.045984 445.201122 806.043098 442.793875 806.043098 440.284174 
C 806.043098 437.774474 805.045984 435.367227 803.271358 433.592601 
C 801.496732 431.817975 799.089484 430.82086 796.579784 430.82086 
C 794.070084 430.82086 791.662836 431.817975 789.88821 433.592601 
C 788.113584 435.367227 787.11647 437.774474 787.11647 440.284174 
C 787.11647 442.793875 788.113584 445.201122 789.88821 446.975748 
C 791.662836 448.750374 794.070084 449.747489 796.579784 449.747489 
z
" clip-path="url(#pfbb942be45)" style="fill: #1f77b4; fill-opacity: 0.7; stroke: #ffffff; stroke-opacity: 0.7; stroke-width: 1.047507"/>
    <path d="M 606.008011 264.109703 
C 608.808263 264.109703 611.4942 262.997152 613.474277 261.017075 
C 615.454354 259.036998 616.566906 256.35106 616.566906 253.550809 
C 616.566906 250.750557 615.454354 248.06462 613.474277 246.084543 
C 611.4942 244.104466 608.808263 242.991915 606.008011 242.991915 
C 603.20776 242.991915 600.521822 244.104466 598.541746 246.084543 
C 596.561669 248.06462 595.449117 250.750557 595.449117 253.550809 
C 595.449117 256.35106 596.561669 259.036998 598.541746 261.017075 
C 600.521822 262.997152 603.20776 264.109703 606.008011 264.109703 
z
" clip-path="url(#pfbb942be45)" style="fill: #1f77b4; fill-opacity: 0.7; stroke: #ffffff; stroke-opacity: 0.7; stroke-width: 1.047507"/>
    <path d="M 685.869426 251.59069 
C 688.677537 251.59069 691.371013 250.475016 693.356648 248.489381 
C 695.342282 246.503747 696.457957 243.810271 696.457957 241.002159 
C 696.457957 238.194048 695.342282 235.500572 693.356648 233.514937 
C 691.371013 231.529303 688.677537 230.413628 685.869426 230.413628 
C 683.061314 230.413628 680.367838 231.529303 678.382203 233.514937 
C 676.396569 235.500572 675.280895 238.194048 675.280895 241.002159 
C 675.280895 243.810271 676.396569 246.503747 678.382203 248.489381 
C 680.367838 250.475016 683.061314 251.59069 685.869426 251.59069 
z
" clip-path="url(#pfbb942be45)" style="fill: #1f77b4; fill-opacity: 0.7; stroke: #ffffff; stroke-opacity: 0.7; stroke-width: 1.047507"/>
    <path d="M 607.545578 471.410483 
C 609.746474 471.410483 611.857523 470.536058 613.413792 468.97979 
C 614.97006 467.423521 615.844486 465.312472 615.844486 463.111576 
C 615.844486 460.91068 614.97006 458.79963 613.413792 457.243362 
C 611.857523 455.687093 609.746474 454.812668 607.545578 454.812668 
C 605.344682 454.812668 603.233633 455.687093 601.677364 457.243362 
C 600.121096 458.79963 599.246671 460.91068 599.246671 463.111576 
C 599.246671 465.312472 600.121096 467.423521 601.677364 468.97979 
C 603.233633 470.536058 605.344682 471.410483 607.545578 471.410483 
z
" clip-path="url(#pfbb942be45)" style="fill: #1f77b4; fill-opacity: 0.7; stroke: #ffffff; stroke-opacity: 0.7; stroke-width: 1.047507"/>
    <path d="M 925.483266 314.371481 
C 927.857585 314.371481 930.134977 313.428154 931.813874 311.749257 
C 933.492771 310.07036 934.436098 307.792968 934.436098 305.418649 
C 934.436098 303.04433 933.492771 300.766937 931.813874 299.08804 
C 930.134977 297.409143 927.857585 296.465817 925.483266 296.465817 
C 923.108947 296.465817 920.831555 297.409143 919.152658 299.08804 
C 917.473761 300.766937 916.530434 303.04433 916.530434 305.418649 
C 916.530434 307.792968 917.473761 310.07036 919.152658 311.749257 
C 920.831555 313.428154 923.108947 314.371481 925.483266 314.371481 
z
" clip-path="url(#pfbb942be45)" style="fill: #1f77b4; fill-opacity: 0.7; stroke: #ffffff; stroke-opacity: 0.7; stroke-width: 1.047507"/>
    <path d="M 752.740606 396.290194 
C 755.000788 396.290194 757.168704 395.392214 758.766895 393.794024 
C 760.365085 392.195833 761.263065 390.027918 761.263065 387.767735 
C 761.263065 385.507553 760.365085 383.339637 758.766895 381.741446 
C 757.168704 380.143256 755.000788 379.245276 752.740606 379.245276 
C 750.480423 379.245276 748.312507 380.143256 746.714317 381.741446 
C 745.116127 383.339637 744.218146 385.507553 744.218146 387.767735 
C 744.218146 390.027918 745.116127 392.195833 746.714317 393.794024 
C 748.312507 395.392214 750.480423 396.290194 752.740606 396.290194 
z
" clip-path="url(#pfbb942be45)" style="fill: #1f77b4; fill-opacity: 0.7; stroke: #ffffff; stroke-opacity: 0.7; stroke-width: 1.047507"/>
    <path d="M 859.209088 309.238983 
C 861.409984 309.238983 863.521033 308.364558 865.077302 306.808289 
C 866.63357 305.252021 867.507996 303.140971 867.507996 300.940075 
C 867.507996 298.739179 866.63357 296.62813 865.077302 295.071861 
C 863.521033 293.515593 861.409984 292.641168 859.209088 292.641168 
C 857.008192 292.641168 854.897143 293.515593 853.340874 295.071861 
C 851.784606 296.62813 850.910181 298.739179 850.910181 300.940075 
C 850.910181 303.140971 851.784606 305.252021 853.340874 306.808289 
C 854.897143 308.364558 857.008192 309.238983 859.209088 309.238983 
z
" clip-path="url(#pfbb942be45)" style="fill: #1f77b4; fill-opacity: 0.7; stroke: #ffffff; stroke-opacity: 0.7; stroke-width: 1.047507"/>
    <path d="M 863.124308 269.87676 
C 865.103766 269.87676 867.002417 269.090313 868.402106 267.690624 
C 869.801794 266.290936 870.588241 264.392284 870.588241 262.412826 
C 870.588241 260.433368 869.801794 258.534716 868.402106 257.135028 
C 867.002417 255.735339 865.103766 254.948892 863.124308 254.948892 
C 861.144849 254.948892 859.246198 255.735339 857.84651 257.135028 
C 856.446821 258.534716 855.660374 260.433368 855.660374 262.412826 
C 855.660374 264.392284 856.446821 266.290936 857.84651 267.690624 
C 859.246198 269.090313 861.144849 269.87676 863.124308 269.87676 
z
" clip-path="url(#pfbb942be45)" style="fill: #1f77b4; fill-opacity: 0.7; stroke: #ffffff; stroke-opacity: 0.7; stroke-width: 1.047507"/>
    <path d="M 900.214502 398.887816 
C 902.079295 398.887816 903.867961 398.146926 905.186569 396.828318 
C 906.505177 395.509711 907.246067 393.721044 907.246067 391.856252 
C 907.246067 389.991459 906.505177 388.202792 905.186569 386.884185 
C 903.867961 385.565577 902.079295 384.824687 900.214502 384.824687 
C 898.34971 384.824687 896.561043 385.565577 895.242435 386.884185 
C 893.923828 388.202792 893.182938 389.991459 893.182938 391.856252 
C 893.182938 393.721044 893.923828 395.509711 895.242435 396.828318 
C 896.561043 398.146926 898.34971 398.887816 900.214502 398.887816 
z
" clip-path="url(#pfbb942be45)" style="fill: #1f77b4; fill-opacity: 0.7; stroke: #ffffff; stroke-opacity: 0.7; stroke-width: 1.047507"/>
    <path d="M 1047.143239 346.803949 
C 1048.821406 346.803949 1050.431066 346.137206 1051.61771 344.950562 
C 1052.804353 343.763918 1053.471096 342.154258 1053.471096 340.476091 
C 1053.471096 338.797923 1052.804353 337.188263 1051.61771 336.00162 
C 1050.431066 334.814976 1048.821406 334.148233 1047.143239 334.148233 
C 1045.465071 334.148233 1043.855411 334.814976 1042.668768 336.00162 
C 1041.482124 337.188263 1040.815381 338.797923 1040.815381 340.476091 
C 1040.815381 342.154258 1041.482124 343.763918 1042.668768 344.950562 
C 1043.855411 346.137206 1045.465071 346.803949 1047.143239 346.803949 
z
" clip-path="url(#pfbb942be45)" style="fill: #1f77b4; fill-opacity: 0.7; stroke: #ffffff; stroke-opacity: 0.7; stroke-width: 1.047507"/>
    <path d="M 824.625407 458.135475 
C 825.951423 458.135475 827.223307 457.608643 828.160941 456.671008 
C 829.098576 455.733374 829.625407 454.46149 829.625407 453.135475 
C 829.625407 451.809459 829.098576 450.537575 828.160941 449.599941 
C 827.223307 448.662306 825.951423 448.135475 824.625407 448.135475 
C 823.299392 448.135475 822.027508 448.662306 821.089873 449.599941 
C 820.152239 450.537575 819.625407 451.809459 819.625407 453.135475 
C 819.625407 454.46149 820.152239 455.733374 821.089873 456.671008 
C 822.027508 457.608643 823.299392 458.135475 824.625407 458.135475 
z
" clip-path="url(#pfbb942be45)" style="fill: #1f77b4; fill-opacity: 0.7; stroke: #ffffff; stroke-opacity: 0.7; stroke-width: 1.047507"/>
    <path d="M 645.978062 58.144354 
C 648.065898 58.144354 650.068503 57.314848 651.544826 55.838525 
C 653.021149 54.362202 653.850655 52.359597 653.850655 50.271761 
C 653.850655 48.183925 653.021149 46.181321 651.544826 44.704998 
C 650.068503 43.228675 648.065898 42.399169 645.978062 42.399169 
C 643.890226 42.399169 641.887622 43.228675 640.411299 44.704998 
C 638.934976 46.181321 638.10547 48.183925 638.10547 50.271761 
C 638.10547 52.359597 638.934976 54.362202 640.411299 55.838525 
C 641.887622 57.314848 643.890226 58.144354 645.978062 58.144354 
z
" clip-path="url(#pfbb942be45)" style="fill: #1f77b4; fill-opacity: 0.7; stroke: #ffffff; stroke-opacity: 0.7; stroke-width: 1.047507"/>
    <path d="M 884.578676 98.956619 
C 886.501656 98.956619 888.346135 98.192611 889.705888 96.832858 
C 891.06564 95.473106 891.829649 93.628627 891.829649 91.705647 
C 891.829649 89.782666 891.06564 87.938187 889.705888 86.578435 
C 888.346135 85.218682 886.501656 84.454674 884.578676 84.454674 
C 882.655696 84.454674 880.811217 85.218682 879.451464 86.578435 
C 878.091712 87.938187 877.327704 89.782666 877.327704 91.705647 
C 877.327704 93.628627 878.091712 95.473106 879.451464 96.832858 
C 880.811217 98.192611 882.655696 98.956619 884.578676 98.956619 
z
" clip-path="url(#pfbb942be45)" style="fill: #1f77b4; fill-opacity: 0.7; stroke: #ffffff; stroke-opacity: 0.7; stroke-width: 1.047507"/>
    <path d="M 896.659015 58.081237 
C 898.401613 58.081237 900.073074 57.388896 901.305276 56.156693 
C 902.537479 54.92449 903.229821 53.25303 903.229821 51.510432 
C 903.229821 49.767834 902.537479 48.096373 901.305276 46.86417 
C 900.073074 45.631968 898.401613 44.939626 896.659015 44.939626 
C 894.916417 44.939626 893.244957 45.631968 892.012754 46.86417 
C 890.780551 48.096373 890.088209 49.767834 890.088209 51.510432 
C 890.088209 53.25303 890.780551 54.92449 892.012754 56.156693 
C 893.244957 57.388896 894.916417 58.081237 896.659015 58.081237 
z
" clip-path="url(#pfbb942be45)" style="fill: #1f77b4; fill-opacity: 0.7; stroke: #ffffff; stroke-opacity: 0.7; stroke-width: 1.047507"/>
   </g>
   <g id="matplotlib.axis_3">
    <g id="xtick_7">
     <g id="line2d_25">
      <g>
       <use xlink:href="#m5b3e854b88" x="601.55359" y="533.93875" style="stroke: #000000; stroke-width: 0.8"/>
      </g>
     </g>
     <g id="text_23">
      <!-- 0.00 -->
      <g transform="translate(590.420777 548.537187) scale(0.1 -0.1)">
       <use xlink:href="#DejaVuSans-30"/>
       <use xlink:href="#DejaVuSans-2e" x="63.623047"/>
       <use xlink:href="#DejaVuSans-30" x="95.410156"/>
       <use xlink:href="#DejaVuSans-30" x="159.033203"/>
      </g>
     </g>
    </g>
    <g id="xtick_8">
     <g id="line2d_26">
      <g>
       <use xlink:href="#m5b3e854b88" x="660.574675" y="533.93875" style="stroke: #000000; stroke-width: 0.8"/>
      </g>
     </g>
     <g id="text_24">
      <!-- 0.05 -->
      <g transform="translate(649.441862 548.537187) scale(0.1 -0.1)">
       <use xlink:href="#DejaVuSans-30"/>
       <use xlink:href="#DejaVuSans-2e" x="63.623047"/>
       <use xlink:href="#DejaVuSans-30" x="95.410156"/>
       <use xlink:href="#DejaVuSans-35" x="159.033203"/>
      </g>
     </g>
    </g>
    <g id="xtick_9">
     <g id="line2d_27">
      <g>
       <use xlink:href="#m5b3e854b88" x="719.59576" y="533.93875" style="stroke: #000000; stroke-width: 0.8"/>
      </g>
     </g>
     <g id="text_25">
      <!-- 0.10 -->
      <g transform="translate(708.462947 548.537187) scale(0.1 -0.1)">
       <use xlink:href="#DejaVuSans-30"/>
       <use xlink:href="#DejaVuSans-2e" x="63.623047"/>
       <use xlink:href="#DejaVuSans-31" x="95.410156"/>
       <use xlink:href="#DejaVuSans-30" x="159.033203"/>
      </g>
     </g>
    </g>
    <g id="xtick_10">
     <g id="line2d_28">
      <g>
       <use xlink:href="#m5b3e854b88" x="778.616845" y="533.93875" style="stroke: #000000; stroke-width: 0.8"/>
      </g>
     </g>
     <g id="text_26">
      <!-- 0.15 -->
      <g transform="translate(767.484033 548.537187) scale(0.1 -0.1)">
       <use xlink:href="#DejaVuSans-30"/>
       <use xlink:href="#DejaVuSans-2e" x="63.623047"/>
       <use xlink:href="#DejaVuSans-31" x="95.410156"/>
       <use xlink:href="#DejaVuSans-35" x="159.033203"/>
      </g>
     </g>
    </g>
    <g id="xtick_11">
     <g id="line2d_29">
      <g>
       <use xlink:href="#m5b3e854b88" x="837.63793" y="533.93875" style="stroke: #000000; stroke-width: 0.8"/>
      </g>
     </g>
     <g id="text_27">
      <!-- 0.20 -->
      <g transform="translate(826.505118 548.537187) scale(0.1 -0.1)">
       <use xlink:href="#DejaVuSans-30"/>
       <use xlink:href="#DejaVuSans-2e" x="63.623047"/>
       <use xlink:href="#DejaVuSans-32" x="95.410156"/>
       <use xlink:href="#DejaVuSans-30" x="159.033203"/>
      </g>
     </g>
    </g>
    <g id="xtick_12">
     <g id="line2d_30">
      <g>
       <use xlink:href="#m5b3e854b88" x="896.659015" y="533.93875" style="stroke: #000000; stroke-width: 0.8"/>
      </g>
     </g>
     <g id="text_28">
      <!-- 0.25 -->
      <g transform="translate(885.526203 548.537187) scale(0.1 -0.1)">
       <use xlink:href="#DejaVuSans-30"/>
       <use xlink:href="#DejaVuSans-2e" x="63.623047"/>
       <use xlink:href="#DejaVuSans-32" x="95.410156"/>
       <use xlink:href="#DejaVuSans-35" x="159.033203"/>
      </g>
     </g>
    </g>
    <g id="xtick_13">
     <g id="line2d_31">
      <g>
       <use xlink:href="#m5b3e854b88" x="955.6801" y="533.93875" style="stroke: #000000; stroke-width: 0.8"/>
      </g>
     </g>
     <g id="text_29">
      <!-- 0.30 -->
      <g transform="translate(944.547288 548.537187) scale(0.1 -0.1)">
       <use xlink:href="#DejaVuSans-30"/>
       <use xlink:href="#DejaVuSans-2e" x="63.623047"/>
       <use xlink:href="#DejaVuSans-33" x="95.410156"/>
       <use xlink:href="#DejaVuSans-30" x="159.033203"/>
      </g>
     </g>
    </g>
    <g id="xtick_14">
     <g id="line2d_32">
      <g>
       <use xlink:href="#m5b3e854b88" x="1014.701185" y="533.93875" style="stroke: #000000; stroke-width: 0.8"/>
      </g>
     </g>
     <g id="text_30">
      <!-- 0.35 -->
      <g transform="translate(1003.568373 548.537187) scale(0.1 -0.1)">
       <use xlink:href="#DejaVuSans-30"/>
       <use xlink:href="#DejaVuSans-2e" x="63.623047"/>
       <use xlink:href="#DejaVuSans-33" x="95.410156"/>
       <use xlink:href="#DejaVuSans-35" x="159.033203"/>
      </g>
     </g>
    </g>
    <g id="text_31">
     <!-- goals_conceded_per_game -->
     <g transform="translate(759.064687 562.215312) scale(0.1 -0.1)">
      <use xlink:href="#DejaVuSans-67"/>
      <use xlink:href="#DejaVuSans-6f" x="63.476562"/>
      <use xlink:href="#DejaVuSans-61" x="124.658203"/>
      <use xlink:href="#DejaVuSans-6c" x="185.9375"/>
      <use xlink:href="#DejaVuSans-73" x="213.720703"/>
      <use xlink:href="#DejaVuSans-5f" x="265.820312"/>
      <use xlink:href="#DejaVuSans-63" x="315.820312"/>
      <use xlink:href="#DejaVuSans-6f" x="370.800781"/>
      <use xlink:href="#DejaVuSans-6e" x="431.982422"/>
      <use xlink:href="#DejaVuSans-63" x="495.361328"/>
      <use xlink:href="#DejaVuSans-65" x="550.341797"/>
      <use xlink:href="#DejaVuSans-64" x="611.865234"/>
      <use xlink:href="#DejaVuSans-65" x="675.341797"/>
      <use xlink:href="#DejaVuSans-64" x="736.865234"/>
      <use xlink:href="#DejaVuSans-5f" x="800.341797"/>
      <use xlink:href="#DejaVuSans-70" x="850.341797"/>
      <use xlink:href="#DejaVuSans-65" x="913.818359"/>
      <use xlink:href="#DejaVuSans-72" x="975.341797"/>
      <use xlink:href="#DejaVuSans-5f" x="1016.455078"/>
      <use xlink:href="#DejaVuSans-67" x="1066.455078"/>
      <use xlink:href="#DejaVuSans-61" x="1129.931641"/>
      <use xlink:href="#DejaVuSans-6d" x="1191.210938"/>
      <use xlink:href="#DejaVuSans-65" x="1288.623047"/>
     </g>
    </g>
   </g>
   <g id="matplotlib.axis_4">
    <g id="ytick_7">
     <g id="line2d_33">
      <g>
       <use xlink:href="#m45e7f0fd22" x="583.95125" y="509.735882" style="stroke: #000000; stroke-width: 0.8"/>
      </g>
     </g>
     <g id="text_32">
      <!-- 0.20 -->
      <g transform="translate(554.685625 513.535101) scale(0.1 -0.1)">
       <use xlink:href="#DejaVuSans-30"/>
       <use xlink:href="#DejaVuSans-2e" x="63.623047"/>
       <use xlink:href="#DejaVuSans-32" x="95.410156"/>
       <use xlink:href="#DejaVuSans-30" x="159.033203"/>
      </g>
     </g>
    </g>
    <g id="ytick_8">
     <g id="line2d_34">
      <g>
       <use xlink:href="#m45e7f0fd22" x="583.95125" y="409.899052" style="stroke: #000000; stroke-width: 0.8"/>
      </g>
     </g>
     <g id="text_33">
      <!-- 0.25 -->
      <g transform="translate(554.685625 413.698271) scale(0.1 -0.1)">
       <use xlink:href="#DejaVuSans-30"/>
       <use xlink:href="#DejaVuSans-2e" x="63.623047"/>
       <use xlink:href="#DejaVuSans-32" x="95.410156"/>
       <use xlink:href="#DejaVuSans-35" x="159.033203"/>
      </g>
     </g>
    </g>
    <g id="ytick_9">
     <g id="line2d_35">
      <g>
       <use xlink:href="#m45e7f0fd22" x="583.95125" y="310.062222" style="stroke: #000000; stroke-width: 0.8"/>
      </g>
     </g>
     <g id="text_34">
      <!-- 0.30 -->
      <g transform="translate(554.685625 313.861441) scale(0.1 -0.1)">
       <use xlink:href="#DejaVuSans-30"/>
       <use xlink:href="#DejaVuSans-2e" x="63.623047"/>
       <use xlink:href="#DejaVuSans-33" x="95.410156"/>
       <use xlink:href="#DejaVuSans-30" x="159.033203"/>
      </g>
     </g>
    </g>
    <g id="ytick_10">
     <g id="line2d_36">
      <g>
       <use xlink:href="#m45e7f0fd22" x="583.95125" y="210.225392" style="stroke: #000000; stroke-width: 0.8"/>
      </g>
     </g>
     <g id="text_35">
      <!-- 0.35 -->
      <g transform="translate(554.685625 214.024611) scale(0.1 -0.1)">
       <use xlink:href="#DejaVuSans-30"/>
       <use xlink:href="#DejaVuSans-2e" x="63.623047"/>
       <use xlink:href="#DejaVuSans-33" x="95.410156"/>
       <use xlink:href="#DejaVuSans-35" x="159.033203"/>
      </g>
     </g>
    </g>
    <g id="ytick_11">
     <g id="line2d_37">
      <g>
       <use xlink:href="#m45e7f0fd22" x="583.95125" y="110.388562" style="stroke: #000000; stroke-width: 0.8"/>
      </g>
     </g>
     <g id="text_36">
      <!-- 0.40 -->
      <g transform="translate(554.685625 114.187781) scale(0.1 -0.1)">
       <use xlink:href="#DejaVuSans-30"/>
       <use xlink:href="#DejaVuSans-2e" x="63.623047"/>
       <use xlink:href="#DejaVuSans-34" x="95.410156"/>
       <use xlink:href="#DejaVuSans-30" x="159.033203"/>
      </g>
     </g>
    </g>
    <g id="text_37">
     <!-- loss_ratio -->
     <g transform="translate(548.327812 304.275313) rotate(-90) scale(0.1 -0.1)">
      <use xlink:href="#DejaVuSans-6c"/>
      <use xlink:href="#DejaVuSans-6f" x="27.783203"/>
      <use xlink:href="#DejaVuSans-73" x="88.964844"/>
      <use xlink:href="#DejaVuSans-73" x="141.064453"/>
      <use xlink:href="#DejaVuSans-5f" x="193.164062"/>
      <use xlink:href="#DejaVuSans-72" x="243.164062"/>
      <use xlink:href="#DejaVuSans-61" x="284.277344"/>
      <use xlink:href="#DejaVuSans-74" x="345.556641"/>
      <use xlink:href="#DejaVuSans-69" x="384.765625"/>
      <use xlink:href="#DejaVuSans-6f" x="412.548828"/>
     </g>
    </g>
   </g>
   <g id="line2d_38"/>
   <g id="line2d_39"/>
   <g id="line2d_40"/>
   <g id="line2d_41"/>
   <g id="line2d_42"/>
   <g id="line2d_43"/>
   <g id="patch_9">
    <path d="M 583.95125 533.93875 
L 583.95125 27.24 
" style="fill: none; stroke: #000000; stroke-width: 0.8; stroke-linejoin: miter; stroke-linecap: square"/>
   </g>
   <g id="patch_10">
    <path d="M 1069.2 533.93875 
L 1069.2 27.24 
" style="fill: none; stroke: #000000; stroke-width: 0.8; stroke-linejoin: miter; stroke-linecap: square"/>
   </g>
   <g id="patch_11">
    <path d="M 583.95125 533.93875 
L 1069.2 533.93875 
" style="fill: none; stroke: #000000; stroke-width: 0.8; stroke-linejoin: miter; stroke-linecap: square"/>
   </g>
   <g id="patch_12">
    <path d="M 583.95125 27.24 
L 1069.2 27.24 
" style="fill: none; stroke: #000000; stroke-width: 0.8; stroke-linejoin: miter; stroke-linecap: square"/>
   </g>
   <g id="text_38">
    <!-- Buts Encaissés par Match vs Ratio de Défaites -->
    <g transform="translate(687.74875 21.24) scale(0.12 -0.12)">
     <defs>
      <path id="DejaVuSans-45" d="M 628 4666 
L 3578 4666 
L 3578 4134 
L 1259 4134 
L 1259 2753 
L 3481 2753 
L 3481 2222 
L 1259 2222 
L 1259 531 
L 3634 531 
L 3634 0 
L 628 0 
L 628 4666 
z
" transform="scale(0.015625)"/>
      <path id="DejaVuSans-52" d="M 2841 2188 
Q 3044 2119 3236 1894 
Q 3428 1669 3622 1275 
L 4263 0 
L 3584 0 
L 2988 1197 
Q 2756 1666 2539 1819 
Q 2322 1972 1947 1972 
L 1259 1972 
L 1259 0 
L 628 0 
L 628 4666 
L 2053 4666 
Q 2853 4666 3247 4331 
Q 3641 3997 3641 3322 
Q 3641 2881 3436 2590 
Q 3231 2300 2841 2188 
z
M 1259 4147 
L 1259 2491 
L 2053 2491 
Q 2509 2491 2742 2702 
Q 2975 2913 2975 3322 
Q 2975 3731 2742 3939 
Q 2509 4147 2053 4147 
L 1259 4147 
z
" transform="scale(0.015625)"/>
      <path id="DejaVuSans-44" d="M 1259 4147 
L 1259 519 
L 2022 519 
Q 2988 519 3436 956 
Q 3884 1394 3884 2338 
Q 3884 3275 3436 3711 
Q 2988 4147 2022 4147 
L 1259 4147 
z
M 628 4666 
L 1925 4666 
Q 3281 4666 3915 4102 
Q 4550 3538 4550 2338 
Q 4550 1131 3912 565 
Q 3275 0 1925 0 
L 628 0 
L 628 4666 
z
" transform="scale(0.015625)"/>
      <path id="DejaVuSans-66" d="M 2375 4863 
L 2375 4384 
L 1825 4384 
Q 1516 4384 1395 4259 
Q 1275 4134 1275 3809 
L 1275 3500 
L 2222 3500 
L 2222 3053 
L 1275 3053 
L 1275 0 
L 697 0 
L 697 3053 
L 147 3053 
L 147 3500 
L 697 3500 
L 697 3744 
Q 697 4328 969 4595 
Q 1241 4863 1831 4863 
L 2375 4863 
z
" transform="scale(0.015625)"/>
     </defs>
     <use xlink:href="#DejaVuSans-42"/>
     <use xlink:href="#DejaVuSans-75" x="68.603516"/>
     <use xlink:href="#DejaVuSans-74" x="131.982422"/>
     <use xlink:href="#DejaVuSans-73" x="171.191406"/>
     <use xlink:href="#DejaVuSans-20" x="223.291016"/>
     <use xlink:href="#DejaVuSans-45" x="255.078125"/>
     <use xlink:href="#DejaVuSans-6e" x="318.261719"/>
     <use xlink:href="#DejaVuSans-63" x="381.640625"/>
     <use xlink:href="#DejaVuSans-61" x="436.621094"/>
     <use xlink:href="#DejaVuSans-69" x="497.900391"/>
     <use xlink:href="#DejaVuSans-73" x="525.683594"/>
     <use xlink:href="#DejaVuSans-73" x="577.783203"/>
     <use xlink:href="#DejaVuSans-e9" x="629.882812"/>
     <use xlink:href="#DejaVuSans-73" x="691.40625"/>
     <use xlink:href="#DejaVuSans-20" x="743.505859"/>
     <use xlink:href="#DejaVuSans-70" x="775.292969"/>
     <use xlink:href="#DejaVuSans-61" x="838.769531"/>
     <use xlink:href="#DejaVuSans-72" x="900.048828"/>
     <use xlink:href="#DejaVuSans-20" x="941.162109"/>
     <use xlink:href="#DejaVuSans-4d" x="972.949219"/>
     <use xlink:href="#DejaVuSans-61" x="1059.228516"/>
     <use xlink:href="#DejaVuSans-74" x="1120.507812"/>
     <use xlink:href="#DejaVuSans-63" x="1159.716797"/>
     <use xlink:href="#DejaVuSans-68" x="1214.697266"/>
     <use xlink:href="#DejaVuSans-20" x="1278.076172"/>
     <use xlink:href="#DejaVuSans-76" x="1309.863281"/>
     <use xlink:href="#DejaVuSans-73" x="1369.042969"/>
     <use xlink:href="#DejaVuSans-20" x="1421.142578"/>
     <use xlink:href="#DejaVuSans-52" x="1452.929688"/>
     <use xlink:href="#DejaVuSans-61" x="1520.162109"/>
     <use xlink:href="#DejaVuSans-74" x="1581.441406"/>
     <use xlink:href="#DejaVuSans-69" x="1620.650391"/>
     <use xlink:href="#DejaVuSans-6f" x="1648.433594"/>
     <use xlink:href="#DejaVuSans-20" x="1709.615234"/>
     <use xlink:href="#DejaVuSans-64" x="1741.402344"/>
     <use xlink:href="#DejaVuSans-65" x="1804.878906"/>
     <use xlink:href="#DejaVuSans-20" x="1866.402344"/>
     <use xlink:href="#DejaVuSans-44" x="1898.189453"/>
     <use xlink:href="#DejaVuSans-e9" x="1975.191406"/>
     <use xlink:href="#DejaVuSans-66" x="2036.714844"/>
     <use xlink:href="#DejaVuSans-61" x="2071.919922"/>
     <use xlink:href="#DejaVuSans-69" x="2133.199219"/>
     <use xlink:href="#DejaVuSans-74" x="2160.982422"/>
     <use xlink:href="#DejaVuSans-65" x="2200.191406"/>
     <use xlink:href="#DejaVuSans-73" x="2261.714844"/>
    </g>
   </g>
   <g id="legend_2">
    <g id="patch_13">
     <path d="M 1011.1125 137.986875 
L 1062.2 137.986875 
Q 1064.2 137.986875 1064.2 135.986875 
L 1064.2 34.24 
Q 1064.2 32.24 1062.2 32.24 
L 1011.1125 32.24 
Q 1009.1125 32.24 1009.1125 34.24 
L 1009.1125 135.986875 
Q 1009.1125 137.986875 1011.1125 137.986875 
z
" style="fill: #ffffff; opacity: 0.8; stroke: #cccccc; stroke-linejoin: miter"/>
    </g>
    <g id="text_39">
     <!-- M. -->
     <g transform="translate(1030.753125 43.838438) scale(0.1 -0.1)">
      <use xlink:href="#DejaVuSans-4d"/>
      <use xlink:href="#DejaVuSans-2e" x="86.279297"/>
     </g>
    </g>
    <g id="line2d_44">
     <g>
      <use xlink:href="#m4e7392a0d5" x="1023.1125" y="55.016563" style="fill: #1f77b4; fill-opacity: 0.7; stroke: #ffffff; stroke-opacity: 0.7; stroke-width: 1.047507"/>
     </g>
    </g>
    <g id="text_40">
     <!-- 180 -->
     <g transform="translate(1041.1125 58.516563) scale(0.1 -0.1)">
      <use xlink:href="#DejaVuSans-31"/>
      <use xlink:href="#DejaVuSans-38" x="63.623047"/>
      <use xlink:href="#DejaVuSans-30" x="127.246094"/>
     </g>
    </g>
    <g id="line2d_45">
     <g>
      <use xlink:href="#m7c83785a4d" x="1023.1125" y="69.694688" style="fill: #1f77b4; fill-opacity: 0.7; stroke: #ffffff; stroke-opacity: 0.7; stroke-width: 1.047507"/>
     </g>
    </g>
    <g id="text_41">
     <!-- 240 -->
     <g transform="translate(1041.1125 73.194688) scale(0.1 -0.1)">
      <use xlink:href="#DejaVuSans-32"/>
      <use xlink:href="#DejaVuSans-34" x="63.623047"/>
      <use xlink:href="#DejaVuSans-30" x="127.246094"/>
     </g>
    </g>
    <g id="line2d_46">
     <g>
      <use xlink:href="#mc0ff5dbb7a" x="1023.1125" y="84.372813" style="fill: #1f77b4; fill-opacity: 0.7; stroke: #ffffff; stroke-opacity: 0.7; stroke-width: 1.047507"/>
     </g>
    </g>
    <g id="text_42">
     <!-- 300 -->
     <g transform="translate(1041.1125 87.872813) scale(0.1 -0.1)">
      <use xlink:href="#DejaVuSans-33"/>
      <use xlink:href="#DejaVuSans-30" x="63.623047"/>
      <use xlink:href="#DejaVuSans-30" x="127.246094"/>
     </g>
    </g>
    <g id="line2d_47">
     <g>
      <use xlink:href="#m8a63727d1a" x="1023.1125" y="99.050938" style="fill: #1f77b4; fill-opacity: 0.7; stroke: #ffffff; stroke-opacity: 0.7; stroke-width: 1.047507"/>
     </g>
    </g>
    <g id="text_43">
     <!-- 360 -->
     <g transform="translate(1041.1125 102.550938) scale(0.1 -0.1)">
      <use xlink:href="#DejaVuSans-33"/>
      <use xlink:href="#DejaVuSans-36" x="63.623047"/>
      <use xlink:href="#DejaVuSans-30" x="127.246094"/>
     </g>
    </g>
    <g id="line2d_48">
     <g>
      <use xlink:href="#m305c4fa157" x="1023.1125" y="113.729063" style="fill: #1f77b4; fill-opacity: 0.7; stroke: #ffffff; stroke-opacity: 0.7; stroke-width: 1.047507"/>
     </g>
    </g>
    <g id="text_44">
     <!-- 420 -->
     <g transform="translate(1041.1125 117.229063) scale(0.1 -0.1)">
      <use xlink:href="#DejaVuSans-34"/>
      <use xlink:href="#DejaVuSans-32" x="63.623047"/>
      <use xlink:href="#DejaVuSans-30" x="127.246094"/>
     </g>
    </g>
    <g id="line2d_49">
     <g>
      <use xlink:href="#m71c1ce31f8" x="1023.1125" y="128.407188" style="fill: #1f77b4; fill-opacity: 0.7; stroke: #ffffff; stroke-opacity: 0.7; stroke-width: 1.047507"/>
     </g>
    </g>
    <g id="text_45">
     <!-- 480 -->
     <g transform="translate(1041.1125 131.907188) scale(0.1 -0.1)">
      <use xlink:href="#DejaVuSans-34"/>
      <use xlink:href="#DejaVuSans-38" x="63.623047"/>
      <use xlink:href="#DejaVuSans-30" x="127.246094"/>
     </g>
    </g>
   </g>
  </g>
 </g>
 <defs>
  <clipPath id="p1770e4f795">
   <rect x="44.67125" y="27.24" width="485.24875" height="506.69875"/>
  </clipPath>
  <clipPath id="pfbb942be45">
   <rect x="583.95125" y="27.24" width="485.24875" height="506.69875"/>
  </clipPath>
 </defs>
</svg>
