<?xml version="1.0" encoding="utf-8" standalone="no"?>
<!DOCTYPE svg PUBLIC "-//W3C//DTD SVG 1.1//EN"
  "http://www.w3.org/Graphics/SVG/1.1/DTD/svg11.dtd">
<svg xmlns:xlink="http://www.w3.org/1999/xlink" width="864pt" height="432pt" viewBox="0 0 864 432" xmlns="http://www.w3.org/2000/svg" version="1.1">
 <metadata>
  <rdf:RDF xmlns:dc="http://purl.org/dc/elements/1.1/" xmlns:cc="http://creativecommons.org/ns#" xmlns:rdf="http://www.w3.org/1999/02/22-rdf-syntax-ns#">
   <cc:Work>
    <dc:type rdf:resource="http://purl.org/dc/dcmitype/StillImage"/>
    <dc:date>2025-04-29T12:27:37.333730</dc:date>
    <dc:format>image/svg+xml</dc:format>
    <dc:creator>
     <cc:Agent>
      <dc:title>Matplotlib v3.6.2, https://matplotlib.org/</dc:title>
     </cc:Agent>
    </dc:creator>
   </cc:Work>
  </rdf:RDF>
 </metadata>
 <defs>
  <style type="text/css">*{stroke-linejoin: round; stroke-linecap: butt}</style>
 </defs>
 <g id="figure_1">
  <g id="patch_1">
   <path d="M 0 432 
L 864 432 
L 864 0 
L 0 0 
z
" style="fill: #ffffff"/>
  </g>
  <g id="axes_1">
   <g id="patch_2">
    <path d="M 216.02 389.93875 
L 853.2 389.93875 
L 853.2 26.88 
L 216.02 26.88 
z
" style="fill: #ffffff"/>
   </g>
   <g id="patch_3">
    <path d="M 216.02 30.510587 
L 822.858095 30.510587 
L 822.858095 59.555287 
L 216.02 59.555287 
z
" clip-path="url(#p7e904601e3)" style="fill: #3274a1"/>
   </g>
   <g id="patch_4">
    <path d="M 216.02 66.816462 
L 649.475782 66.816462 
L 649.475782 95.861162 
L 216.02 95.861162 
z
" clip-path="url(#p7e904601e3)" style="fill: #3274a1"/>
   </g>
   <g id="patch_5">
    <path d="M 216.02 103.122337 
L 562.784626 103.122337 
L 562.784626 132.167037 
L 216.02 132.167037 
z
" clip-path="url(#p7e904601e3)" style="fill: #3274a1"/>
   </g>
   <g id="patch_6">
    <path d="M 216.02 139.428212 
L 562.784626 139.428212 
L 562.784626 168.472912 
L 216.02 168.472912 
z
" clip-path="url(#p7e904601e3)" style="fill: #3274a1"/>
   </g>
   <g id="patch_7">
    <path d="M 216.02 175.734087 
L 562.784626 175.734087 
L 562.784626 204.778787 
L 216.02 204.778787 
z
" clip-path="url(#p7e904601e3)" style="fill: #3274a1"/>
   </g>
   <g id="patch_8">
    <path d="M 216.02 212.039962 
L 476.093469 212.039962 
L 476.093469 241.084662 
L 216.02 241.084662 
z
" clip-path="url(#p7e904601e3)" style="fill: #3274a1"/>
   </g>
   <g id="patch_9">
    <path d="M 216.02 248.345837 
L 476.093469 248.345837 
L 476.093469 277.390537 
L 216.02 277.390537 
z
" clip-path="url(#p7e904601e3)" style="fill: #3274a1"/>
   </g>
   <g id="patch_10">
    <path d="M 216.02 284.651712 
L 476.093469 284.651712 
L 476.093469 313.696412 
L 216.02 313.696412 
z
" clip-path="url(#p7e904601e3)" style="fill: #3274a1"/>
   </g>
   <g id="patch_11">
    <path d="M 216.02 320.957587 
L 476.093469 320.957587 
L 476.093469 350.002287 
L 216.02 350.002287 
z
" clip-path="url(#p7e904601e3)" style="fill: #3274a1"/>
   </g>
   <g id="patch_12">
    <path d="M 216.02 357.263462 
L 476.093469 357.263462 
L 476.093469 386.308162 
L 216.02 386.308162 
z
" clip-path="url(#p7e904601e3)" style="fill: #3274a1"/>
   </g>
   <g id="matplotlib.axis_1">
    <g id="xtick_1">
     <g id="line2d_1">
      <defs>
       <path id="mf30fc3e60d" d="M 0 0 
L 0 3.5 
" style="stroke: #000000; stroke-width: 0.8"/>
      </defs>
      <g>
       <use xlink:href="#mf30fc3e60d" x="216.02" y="389.93875" style="stroke: #000000; stroke-width: 0.8"/>
      </g>
     </g>
     <g id="text_1">
      <!-- 0 -->
      <g transform="translate(212.83875 404.537187) scale(0.1 -0.1)">
       <defs>
        <path id="DejaVuSans-30" d="M 2034 4250 
Q 1547 4250 1301 3770 
Q 1056 3291 1056 2328 
Q 1056 1369 1301 889 
Q 1547 409 2034 409 
Q 2525 409 2770 889 
Q 3016 1369 3016 2328 
Q 3016 3291 2770 3770 
Q 2525 4250 2034 4250 
z
M 2034 4750 
Q 2819 4750 3233 4129 
Q 3647 3509 3647 2328 
Q 3647 1150 3233 529 
Q 2819 -91 2034 -91 
Q 1250 -91 836 529 
Q 422 1150 422 2328 
Q 422 3509 836 4129 
Q 1250 4750 2034 4750 
z
" transform="scale(0.015625)"/>
       </defs>
       <use xlink:href="#DejaVuSans-30"/>
      </g>
     </g>
    </g>
    <g id="xtick_2">
     <g id="line2d_2">
      <g>
       <use xlink:href="#mf30fc3e60d" x="302.711156" y="389.93875" style="stroke: #000000; stroke-width: 0.8"/>
      </g>
     </g>
     <g id="text_2">
      <!-- 1 -->
      <g transform="translate(299.529906 404.537187) scale(0.1 -0.1)">
       <defs>
        <path id="DejaVuSans-31" d="M 794 531 
L 1825 531 
L 1825 4091 
L 703 3866 
L 703 4441 
L 1819 4666 
L 2450 4666 
L 2450 531 
L 3481 531 
L 3481 0 
L 794 0 
L 794 531 
z
" transform="scale(0.015625)"/>
       </defs>
       <use xlink:href="#DejaVuSans-31"/>
      </g>
     </g>
    </g>
    <g id="xtick_3">
     <g id="line2d_3">
      <g>
       <use xlink:href="#mf30fc3e60d" x="389.402313" y="389.93875" style="stroke: #000000; stroke-width: 0.8"/>
      </g>
     </g>
     <g id="text_3">
      <!-- 2 -->
      <g transform="translate(386.221063 404.537187) scale(0.1 -0.1)">
       <defs>
        <path id="DejaVuSans-32" d="M 1228 531 
L 3431 531 
L 3431 0 
L 469 0 
L 469 531 
Q 828 903 1448 1529 
Q 2069 2156 2228 2338 
Q 2531 2678 2651 2914 
Q 2772 3150 2772 3378 
Q 2772 3750 2511 3984 
Q 2250 4219 1831 4219 
Q 1534 4219 1204 4116 
Q 875 4013 500 3803 
L 500 4441 
Q 881 4594 1212 4672 
Q 1544 4750 1819 4750 
Q 2544 4750 2975 4387 
Q 3406 4025 3406 3419 
Q 3406 3131 3298 2873 
Q 3191 2616 2906 2266 
Q 2828 2175 2409 1742 
Q 1991 1309 1228 531 
z
" transform="scale(0.015625)"/>
       </defs>
       <use xlink:href="#DejaVuSans-32"/>
      </g>
     </g>
    </g>
    <g id="xtick_4">
     <g id="line2d_4">
      <g>
       <use xlink:href="#mf30fc3e60d" x="476.093469" y="389.93875" style="stroke: #000000; stroke-width: 0.8"/>
      </g>
     </g>
     <g id="text_4">
      <!-- 3 -->
      <g transform="translate(472.912219 404.537187) scale(0.1 -0.1)">
       <defs>
        <path id="DejaVuSans-33" d="M 2597 2516 
Q 3050 2419 3304 2112 
Q 3559 1806 3559 1356 
Q 3559 666 3084 287 
Q 2609 -91 1734 -91 
Q 1441 -91 1130 -33 
Q 819 25 488 141 
L 488 750 
Q 750 597 1062 519 
Q 1375 441 1716 441 
Q 2309 441 2620 675 
Q 2931 909 2931 1356 
Q 2931 1769 2642 2001 
Q 2353 2234 1838 2234 
L 1294 2234 
L 1294 2753 
L 1863 2753 
Q 2328 2753 2575 2939 
Q 2822 3125 2822 3475 
Q 2822 3834 2567 4026 
Q 2313 4219 1838 4219 
Q 1578 4219 1281 4162 
Q 984 4106 628 3988 
L 628 4550 
Q 988 4650 1302 4700 
Q 1616 4750 1894 4750 
Q 2613 4750 3031 4423 
Q 3450 4097 3450 3541 
Q 3450 3153 3228 2886 
Q 3006 2619 2597 2516 
z
" transform="scale(0.015625)"/>
       </defs>
       <use xlink:href="#DejaVuSans-33"/>
      </g>
     </g>
    </g>
    <g id="xtick_5">
     <g id="line2d_5">
      <g>
       <use xlink:href="#mf30fc3e60d" x="562.784626" y="389.93875" style="stroke: #000000; stroke-width: 0.8"/>
      </g>
     </g>
     <g id="text_5">
      <!-- 4 -->
      <g transform="translate(559.603376 404.537187) scale(0.1 -0.1)">
       <defs>
        <path id="DejaVuSans-34" d="M 2419 4116 
L 825 1625 
L 2419 1625 
L 2419 4116 
z
M 2253 4666 
L 3047 4666 
L 3047 1625 
L 3713 1625 
L 3713 1100 
L 3047 1100 
L 3047 0 
L 2419 0 
L 2419 1100 
L 313 1100 
L 313 1709 
L 2253 4666 
z
" transform="scale(0.015625)"/>
       </defs>
       <use xlink:href="#DejaVuSans-34"/>
      </g>
     </g>
    </g>
    <g id="xtick_6">
     <g id="line2d_6">
      <g>
       <use xlink:href="#mf30fc3e60d" x="649.475782" y="389.93875" style="stroke: #000000; stroke-width: 0.8"/>
      </g>
     </g>
     <g id="text_6">
      <!-- 5 -->
      <g transform="translate(646.294532 404.537187) scale(0.1 -0.1)">
       <defs>
        <path id="DejaVuSans-35" d="M 691 4666 
L 3169 4666 
L 3169 4134 
L 1269 4134 
L 1269 2991 
Q 1406 3038 1543 3061 
Q 1681 3084 1819 3084 
Q 2600 3084 3056 2656 
Q 3513 2228 3513 1497 
Q 3513 744 3044 326 
Q 2575 -91 1722 -91 
Q 1428 -91 1123 -41 
Q 819 9 494 109 
L 494 744 
Q 775 591 1075 516 
Q 1375 441 1709 441 
Q 2250 441 2565 725 
Q 2881 1009 2881 1497 
Q 2881 1984 2565 2268 
Q 2250 2553 1709 2553 
Q 1456 2553 1204 2497 
Q 953 2441 691 2322 
L 691 4666 
z
" transform="scale(0.015625)"/>
       </defs>
       <use xlink:href="#DejaVuSans-35"/>
      </g>
     </g>
    </g>
    <g id="xtick_7">
     <g id="line2d_7">
      <g>
       <use xlink:href="#mf30fc3e60d" x="736.166939" y="389.93875" style="stroke: #000000; stroke-width: 0.8"/>
      </g>
     </g>
     <g id="text_7">
      <!-- 6 -->
      <g transform="translate(732.985689 404.537187) scale(0.1 -0.1)">
       <defs>
        <path id="DejaVuSans-36" d="M 2113 2584 
Q 1688 2584 1439 2293 
Q 1191 2003 1191 1497 
Q 1191 994 1439 701 
Q 1688 409 2113 409 
Q 2538 409 2786 701 
Q 3034 994 3034 1497 
Q 3034 2003 2786 2293 
Q 2538 2584 2113 2584 
z
M 3366 4563 
L 3366 3988 
Q 3128 4100 2886 4159 
Q 2644 4219 2406 4219 
Q 1781 4219 1451 3797 
Q 1122 3375 1075 2522 
Q 1259 2794 1537 2939 
Q 1816 3084 2150 3084 
Q 2853 3084 3261 2657 
Q 3669 2231 3669 1497 
Q 3669 778 3244 343 
Q 2819 -91 2113 -91 
Q 1303 -91 875 529 
Q 447 1150 447 2328 
Q 447 3434 972 4092 
Q 1497 4750 2381 4750 
Q 2619 4750 2861 4703 
Q 3103 4656 3366 4563 
z
" transform="scale(0.015625)"/>
       </defs>
       <use xlink:href="#DejaVuSans-36"/>
      </g>
     </g>
    </g>
    <g id="xtick_8">
     <g id="line2d_8">
      <g>
       <use xlink:href="#mf30fc3e60d" x="822.858095" y="389.93875" style="stroke: #000000; stroke-width: 0.8"/>
      </g>
     </g>
     <g id="text_8">
      <!-- 7 -->
      <g transform="translate(819.676845 404.537187) scale(0.1 -0.1)">
       <defs>
        <path id="DejaVuSans-37" d="M 525 4666 
L 3525 4666 
L 3525 4397 
L 1831 0 
L 1172 0 
L 2766 4134 
L 525 4134 
L 525 4666 
z
" transform="scale(0.015625)"/>
       </defs>
       <use xlink:href="#DejaVuSans-37"/>
      </g>
     </g>
    </g>
    <g id="text_9">
     <!-- times_hosted -->
     <g transform="translate(501.165469 418.215312) scale(0.1 -0.1)">
      <defs>
       <path id="DejaVuSans-74" d="M 1172 4494 
L 1172 3500 
L 2356 3500 
L 2356 3053 
L 1172 3053 
L 1172 1153 
Q 1172 725 1289 603 
Q 1406 481 1766 481 
L 2356 481 
L 2356 0 
L 1766 0 
Q 1100 0 847 248 
Q 594 497 594 1153 
L 594 3053 
L 172 3053 
L 172 3500 
L 594 3500 
L 594 4494 
L 1172 4494 
z
" transform="scale(0.015625)"/>
       <path id="DejaVuSans-69" d="M 603 3500 
L 1178 3500 
L 1178 0 
L 603 0 
L 603 3500 
z
M 603 4863 
L 1178 4863 
L 1178 4134 
L 603 4134 
L 603 4863 
z
" transform="scale(0.015625)"/>
       <path id="DejaVuSans-6d" d="M 3328 2828 
Q 3544 3216 3844 3400 
Q 4144 3584 4550 3584 
Q 5097 3584 5394 3201 
Q 5691 2819 5691 2113 
L 5691 0 
L 5113 0 
L 5113 2094 
Q 5113 2597 4934 2840 
Q 4756 3084 4391 3084 
Q 3944 3084 3684 2787 
Q 3425 2491 3425 1978 
L 3425 0 
L 2847 0 
L 2847 2094 
Q 2847 2600 2669 2842 
Q 2491 3084 2119 3084 
Q 1678 3084 1418 2786 
Q 1159 2488 1159 1978 
L 1159 0 
L 581 0 
L 581 3500 
L 1159 3500 
L 1159 2956 
Q 1356 3278 1631 3431 
Q 1906 3584 2284 3584 
Q 2666 3584 2933 3390 
Q 3200 3197 3328 2828 
z
" transform="scale(0.015625)"/>
       <path id="DejaVuSans-65" d="M 3597 1894 
L 3597 1613 
L 953 1613 
Q 991 1019 1311 708 
Q 1631 397 2203 397 
Q 2534 397 2845 478 
Q 3156 559 3463 722 
L 3463 178 
Q 3153 47 2828 -22 
Q 2503 -91 2169 -91 
Q 1331 -91 842 396 
Q 353 884 353 1716 
Q 353 2575 817 3079 
Q 1281 3584 2069 3584 
Q 2775 3584 3186 3129 
Q 3597 2675 3597 1894 
z
M 3022 2063 
Q 3016 2534 2758 2815 
Q 2500 3097 2075 3097 
Q 1594 3097 1305 2825 
Q 1016 2553 972 2059 
L 3022 2063 
z
" transform="scale(0.015625)"/>
       <path id="DejaVuSans-73" d="M 2834 3397 
L 2834 2853 
Q 2591 2978 2328 3040 
Q 2066 3103 1784 3103 
Q 1356 3103 1142 2972 
Q 928 2841 928 2578 
Q 928 2378 1081 2264 
Q 1234 2150 1697 2047 
L 1894 2003 
Q 2506 1872 2764 1633 
Q 3022 1394 3022 966 
Q 3022 478 2636 193 
Q 2250 -91 1575 -91 
Q 1294 -91 989 -36 
Q 684 19 347 128 
L 347 722 
Q 666 556 975 473 
Q 1284 391 1588 391 
Q 1994 391 2212 530 
Q 2431 669 2431 922 
Q 2431 1156 2273 1281 
Q 2116 1406 1581 1522 
L 1381 1569 
Q 847 1681 609 1914 
Q 372 2147 372 2553 
Q 372 3047 722 3315 
Q 1072 3584 1716 3584 
Q 2034 3584 2315 3537 
Q 2597 3491 2834 3397 
z
" transform="scale(0.015625)"/>
       <path id="DejaVuSans-5f" d="M 3263 -1063 
L 3263 -1509 
L -63 -1509 
L -63 -1063 
L 3263 -1063 
z
" transform="scale(0.015625)"/>
       <path id="DejaVuSans-68" d="M 3513 2113 
L 3513 0 
L 2938 0 
L 2938 2094 
Q 2938 2591 2744 2837 
Q 2550 3084 2163 3084 
Q 1697 3084 1428 2787 
Q 1159 2491 1159 1978 
L 1159 0 
L 581 0 
L 581 4863 
L 1159 4863 
L 1159 2956 
Q 1366 3272 1645 3428 
Q 1925 3584 2291 3584 
Q 2894 3584 3203 3211 
Q 3513 2838 3513 2113 
z
" transform="scale(0.015625)"/>
       <path id="DejaVuSans-6f" d="M 1959 3097 
Q 1497 3097 1228 2736 
Q 959 2375 959 1747 
Q 959 1119 1226 758 
Q 1494 397 1959 397 
Q 2419 397 2687 759 
Q 2956 1122 2956 1747 
Q 2956 2369 2687 2733 
Q 2419 3097 1959 3097 
z
M 1959 3584 
Q 2709 3584 3137 3096 
Q 3566 2609 3566 1747 
Q 3566 888 3137 398 
Q 2709 -91 1959 -91 
Q 1206 -91 779 398 
Q 353 888 353 1747 
Q 353 2609 779 3096 
Q 1206 3584 1959 3584 
z
" transform="scale(0.015625)"/>
       <path id="DejaVuSans-64" d="M 2906 2969 
L 2906 4863 
L 3481 4863 
L 3481 0 
L 2906 0 
L 2906 525 
Q 2725 213 2448 61 
Q 2172 -91 1784 -91 
Q 1150 -91 751 415 
Q 353 922 353 1747 
Q 353 2572 751 3078 
Q 1150 3584 1784 3584 
Q 2172 3584 2448 3432 
Q 2725 3281 2906 2969 
z
M 947 1747 
Q 947 1113 1208 752 
Q 1469 391 1925 391 
Q 2381 391 2643 752 
Q 2906 1113 2906 1747 
Q 2906 2381 2643 2742 
Q 2381 3103 1925 3103 
Q 1469 3103 1208 2742 
Q 947 2381 947 1747 
z
" transform="scale(0.015625)"/>
      </defs>
      <use xlink:href="#DejaVuSans-74"/>
      <use xlink:href="#DejaVuSans-69" x="39.208984"/>
      <use xlink:href="#DejaVuSans-6d" x="66.992188"/>
      <use xlink:href="#DejaVuSans-65" x="164.404297"/>
      <use xlink:href="#DejaVuSans-73" x="225.927734"/>
      <use xlink:href="#DejaVuSans-5f" x="278.027344"/>
      <use xlink:href="#DejaVuSans-68" x="328.027344"/>
      <use xlink:href="#DejaVuSans-6f" x="391.40625"/>
      <use xlink:href="#DejaVuSans-73" x="452.587891"/>
      <use xlink:href="#DejaVuSans-74" x="504.6875"/>
      <use xlink:href="#DejaVuSans-65" x="543.896484"/>
      <use xlink:href="#DejaVuSans-64" x="605.419922"/>
     </g>
    </g>
   </g>
   <g id="matplotlib.axis_2">
    <g id="ytick_1">
     <g id="line2d_9">
      <defs>
       <path id="m5e5fdc9cd8" d="M 0 0 
L -3.5 0 
" style="stroke: #000000; stroke-width: 0.8"/>
      </defs>
      <g>
       <use xlink:href="#m5e5fdc9cd8" x="216.02" y="45.032937" style="stroke: #000000; stroke-width: 0.8"/>
      </g>
     </g>
     <g id="text_10">
      <!-- Wembley Stadium, London, England -->
      <g transform="translate(27.880938 48.832156) scale(0.1 -0.1)">
       <defs>
        <path id="DejaVuSans-57" d="M 213 4666 
L 850 4666 
L 1831 722 
L 2809 4666 
L 3519 4666 
L 4500 722 
L 5478 4666 
L 6119 4666 
L 4947 0 
L 4153 0 
L 3169 4050 
L 2175 0 
L 1381 0 
L 213 4666 
z
" transform="scale(0.015625)"/>
        <path id="DejaVuSans-62" d="M 3116 1747 
Q 3116 2381 2855 2742 
Q 2594 3103 2138 3103 
Q 1681 3103 1420 2742 
Q 1159 2381 1159 1747 
Q 1159 1113 1420 752 
Q 1681 391 2138 391 
Q 2594 391 2855 752 
Q 3116 1113 3116 1747 
z
M 1159 2969 
Q 1341 3281 1617 3432 
Q 1894 3584 2278 3584 
Q 2916 3584 3314 3078 
Q 3713 2572 3713 1747 
Q 3713 922 3314 415 
Q 2916 -91 2278 -91 
Q 1894 -91 1617 61 
Q 1341 213 1159 525 
L 1159 0 
L 581 0 
L 581 4863 
L 1159 4863 
L 1159 2969 
z
" transform="scale(0.015625)"/>
        <path id="DejaVuSans-6c" d="M 603 4863 
L 1178 4863 
L 1178 0 
L 603 0 
L 603 4863 
z
" transform="scale(0.015625)"/>
        <path id="DejaVuSans-79" d="M 2059 -325 
Q 1816 -950 1584 -1140 
Q 1353 -1331 966 -1331 
L 506 -1331 
L 506 -850 
L 844 -850 
Q 1081 -850 1212 -737 
Q 1344 -625 1503 -206 
L 1606 56 
L 191 3500 
L 800 3500 
L 1894 763 
L 2988 3500 
L 3597 3500 
L 2059 -325 
z
" transform="scale(0.015625)"/>
        <path id="DejaVuSans-20" transform="scale(0.015625)"/>
        <path id="DejaVuSans-53" d="M 3425 4513 
L 3425 3897 
Q 3066 4069 2747 4153 
Q 2428 4238 2131 4238 
Q 1616 4238 1336 4038 
Q 1056 3838 1056 3469 
Q 1056 3159 1242 3001 
Q 1428 2844 1947 2747 
L 2328 2669 
Q 3034 2534 3370 2195 
Q 3706 1856 3706 1288 
Q 3706 609 3251 259 
Q 2797 -91 1919 -91 
Q 1588 -91 1214 -16 
Q 841 59 441 206 
L 441 856 
Q 825 641 1194 531 
Q 1563 422 1919 422 
Q 2459 422 2753 634 
Q 3047 847 3047 1241 
Q 3047 1584 2836 1778 
Q 2625 1972 2144 2069 
L 1759 2144 
Q 1053 2284 737 2584 
Q 422 2884 422 3419 
Q 422 4038 858 4394 
Q 1294 4750 2059 4750 
Q 2388 4750 2728 4690 
Q 3069 4631 3425 4513 
z
" transform="scale(0.015625)"/>
        <path id="DejaVuSans-61" d="M 2194 1759 
Q 1497 1759 1228 1600 
Q 959 1441 959 1056 
Q 959 750 1161 570 
Q 1363 391 1709 391 
Q 2188 391 2477 730 
Q 2766 1069 2766 1631 
L 2766 1759 
L 2194 1759 
z
M 3341 1997 
L 3341 0 
L 2766 0 
L 2766 531 
Q 2569 213 2275 61 
Q 1981 -91 1556 -91 
Q 1019 -91 701 211 
Q 384 513 384 1019 
Q 384 1609 779 1909 
Q 1175 2209 1959 2209 
L 2766 2209 
L 2766 2266 
Q 2766 2663 2505 2880 
Q 2244 3097 1772 3097 
Q 1472 3097 1187 3025 
Q 903 2953 641 2809 
L 641 3341 
Q 956 3463 1253 3523 
Q 1550 3584 1831 3584 
Q 2591 3584 2966 3190 
Q 3341 2797 3341 1997 
z
" transform="scale(0.015625)"/>
        <path id="DejaVuSans-75" d="M 544 1381 
L 544 3500 
L 1119 3500 
L 1119 1403 
Q 1119 906 1312 657 
Q 1506 409 1894 409 
Q 2359 409 2629 706 
Q 2900 1003 2900 1516 
L 2900 3500 
L 3475 3500 
L 3475 0 
L 2900 0 
L 2900 538 
Q 2691 219 2414 64 
Q 2138 -91 1772 -91 
Q 1169 -91 856 284 
Q 544 659 544 1381 
z
M 1991 3584 
L 1991 3584 
z
" transform="scale(0.015625)"/>
        <path id="DejaVuSans-2c" d="M 750 794 
L 1409 794 
L 1409 256 
L 897 -744 
L 494 -744 
L 750 256 
L 750 794 
z
" transform="scale(0.015625)"/>
        <path id="DejaVuSans-4c" d="M 628 4666 
L 1259 4666 
L 1259 531 
L 3531 531 
L 3531 0 
L 628 0 
L 628 4666 
z
" transform="scale(0.015625)"/>
        <path id="DejaVuSans-6e" d="M 3513 2113 
L 3513 0 
L 2938 0 
L 2938 2094 
Q 2938 2591 2744 2837 
Q 2550 3084 2163 3084 
Q 1697 3084 1428 2787 
Q 1159 2491 1159 1978 
L 1159 0 
L 581 0 
L 581 3500 
L 1159 3500 
L 1159 2956 
Q 1366 3272 1645 3428 
Q 1925 3584 2291 3584 
Q 2894 3584 3203 3211 
Q 3513 2838 3513 2113 
z
" transform="scale(0.015625)"/>
        <path id="DejaVuSans-45" d="M 628 4666 
L 3578 4666 
L 3578 4134 
L 1259 4134 
L 1259 2753 
L 3481 2753 
L 3481 2222 
L 1259 2222 
L 1259 531 
L 3634 531 
L 3634 0 
L 628 0 
L 628 4666 
z
" transform="scale(0.015625)"/>
        <path id="DejaVuSans-67" d="M 2906 1791 
Q 2906 2416 2648 2759 
Q 2391 3103 1925 3103 
Q 1463 3103 1205 2759 
Q 947 2416 947 1791 
Q 947 1169 1205 825 
Q 1463 481 1925 481 
Q 2391 481 2648 825 
Q 2906 1169 2906 1791 
z
M 3481 434 
Q 3481 -459 3084 -895 
Q 2688 -1331 1869 -1331 
Q 1566 -1331 1297 -1286 
Q 1028 -1241 775 -1147 
L 775 -588 
Q 1028 -725 1275 -790 
Q 1522 -856 1778 -856 
Q 2344 -856 2625 -561 
Q 2906 -266 2906 331 
L 2906 616 
Q 2728 306 2450 153 
Q 2172 0 1784 0 
Q 1141 0 747 490 
Q 353 981 353 1791 
Q 353 2603 747 3093 
Q 1141 3584 1784 3584 
Q 2172 3584 2450 3431 
Q 2728 3278 2906 2969 
L 2906 3500 
L 3481 3500 
L 3481 434 
z
" transform="scale(0.015625)"/>
       </defs>
       <use xlink:href="#DejaVuSans-57"/>
       <use xlink:href="#DejaVuSans-65" x="93.001953"/>
       <use xlink:href="#DejaVuSans-6d" x="154.525391"/>
       <use xlink:href="#DejaVuSans-62" x="251.9375"/>
       <use xlink:href="#DejaVuSans-6c" x="315.414062"/>
       <use xlink:href="#DejaVuSans-65" x="343.197266"/>
       <use xlink:href="#DejaVuSans-79" x="404.720703"/>
       <use xlink:href="#DejaVuSans-20" x="463.900391"/>
       <use xlink:href="#DejaVuSans-53" x="495.6875"/>
       <use xlink:href="#DejaVuSans-74" x="559.164062"/>
       <use xlink:href="#DejaVuSans-61" x="598.373047"/>
       <use xlink:href="#DejaVuSans-64" x="659.652344"/>
       <use xlink:href="#DejaVuSans-69" x="723.128906"/>
       <use xlink:href="#DejaVuSans-75" x="750.912109"/>
       <use xlink:href="#DejaVuSans-6d" x="814.291016"/>
       <use xlink:href="#DejaVuSans-2c" x="911.703125"/>
       <use xlink:href="#DejaVuSans-20" x="943.490234"/>
       <use xlink:href="#DejaVuSans-4c" x="975.277344"/>
       <use xlink:href="#DejaVuSans-6f" x="1029.240234"/>
       <use xlink:href="#DejaVuSans-6e" x="1090.421875"/>
       <use xlink:href="#DejaVuSans-64" x="1153.800781"/>
       <use xlink:href="#DejaVuSans-6f" x="1217.277344"/>
       <use xlink:href="#DejaVuSans-6e" x="1278.458984"/>
       <use xlink:href="#DejaVuSans-2c" x="1341.837891"/>
       <use xlink:href="#DejaVuSans-20" x="1373.625"/>
       <use xlink:href="#DejaVuSans-45" x="1405.412109"/>
       <use xlink:href="#DejaVuSans-6e" x="1468.595703"/>
       <use xlink:href="#DejaVuSans-67" x="1531.974609"/>
       <use xlink:href="#DejaVuSans-6c" x="1595.451172"/>
       <use xlink:href="#DejaVuSans-61" x="1623.234375"/>
       <use xlink:href="#DejaVuSans-6e" x="1684.513672"/>
       <use xlink:href="#DejaVuSans-64" x="1747.892578"/>
      </g>
     </g>
    </g>
    <g id="ytick_2">
     <g id="line2d_10">
      <g>
       <use xlink:href="#m5e5fdc9cd8" x="216.02" y="81.338812" style="stroke: #000000; stroke-width: 0.8"/>
      </g>
     </g>
     <g id="text_11">
      <!-- Heysel Stadium, Brussels, Belgium -->
      <g transform="translate(34.929375 85.138031) scale(0.1 -0.1)">
       <defs>
        <path id="DejaVuSans-48" d="M 628 4666 
L 1259 4666 
L 1259 2753 
L 3553 2753 
L 3553 4666 
L 4184 4666 
L 4184 0 
L 3553 0 
L 3553 2222 
L 1259 2222 
L 1259 0 
L 628 0 
L 628 4666 
z
" transform="scale(0.015625)"/>
        <path id="DejaVuSans-42" d="M 1259 2228 
L 1259 519 
L 2272 519 
Q 2781 519 3026 730 
Q 3272 941 3272 1375 
Q 3272 1813 3026 2020 
Q 2781 2228 2272 2228 
L 1259 2228 
z
M 1259 4147 
L 1259 2741 
L 2194 2741 
Q 2656 2741 2882 2914 
Q 3109 3088 3109 3444 
Q 3109 3797 2882 3972 
Q 2656 4147 2194 4147 
L 1259 4147 
z
M 628 4666 
L 2241 4666 
Q 2963 4666 3353 4366 
Q 3744 4066 3744 3513 
Q 3744 3084 3544 2831 
Q 3344 2578 2956 2516 
Q 3422 2416 3680 2098 
Q 3938 1781 3938 1306 
Q 3938 681 3513 340 
Q 3088 0 2303 0 
L 628 0 
L 628 4666 
z
" transform="scale(0.015625)"/>
        <path id="DejaVuSans-72" d="M 2631 2963 
Q 2534 3019 2420 3045 
Q 2306 3072 2169 3072 
Q 1681 3072 1420 2755 
Q 1159 2438 1159 1844 
L 1159 0 
L 581 0 
L 581 3500 
L 1159 3500 
L 1159 2956 
Q 1341 3275 1631 3429 
Q 1922 3584 2338 3584 
Q 2397 3584 2469 3576 
Q 2541 3569 2628 3553 
L 2631 2963 
z
" transform="scale(0.015625)"/>
       </defs>
       <use xlink:href="#DejaVuSans-48"/>
       <use xlink:href="#DejaVuSans-65" x="75.195312"/>
       <use xlink:href="#DejaVuSans-79" x="136.71875"/>
       <use xlink:href="#DejaVuSans-73" x="195.898438"/>
       <use xlink:href="#DejaVuSans-65" x="247.998047"/>
       <use xlink:href="#DejaVuSans-6c" x="309.521484"/>
       <use xlink:href="#DejaVuSans-20" x="337.304688"/>
       <use xlink:href="#DejaVuSans-53" x="369.091797"/>
       <use xlink:href="#DejaVuSans-74" x="432.568359"/>
       <use xlink:href="#DejaVuSans-61" x="471.777344"/>
       <use xlink:href="#DejaVuSans-64" x="533.056641"/>
       <use xlink:href="#DejaVuSans-69" x="596.533203"/>
       <use xlink:href="#DejaVuSans-75" x="624.316406"/>
       <use xlink:href="#DejaVuSans-6d" x="687.695312"/>
       <use xlink:href="#DejaVuSans-2c" x="785.107422"/>
       <use xlink:href="#DejaVuSans-20" x="816.894531"/>
       <use xlink:href="#DejaVuSans-42" x="848.681641"/>
       <use xlink:href="#DejaVuSans-72" x="917.285156"/>
       <use xlink:href="#DejaVuSans-75" x="958.398438"/>
       <use xlink:href="#DejaVuSans-73" x="1021.777344"/>
       <use xlink:href="#DejaVuSans-73" x="1073.876953"/>
       <use xlink:href="#DejaVuSans-65" x="1125.976562"/>
       <use xlink:href="#DejaVuSans-6c" x="1187.5"/>
       <use xlink:href="#DejaVuSans-73" x="1215.283203"/>
       <use xlink:href="#DejaVuSans-2c" x="1267.382812"/>
       <use xlink:href="#DejaVuSans-20" x="1299.169922"/>
       <use xlink:href="#DejaVuSans-42" x="1330.957031"/>
       <use xlink:href="#DejaVuSans-65" x="1399.560547"/>
       <use xlink:href="#DejaVuSans-6c" x="1461.083984"/>
       <use xlink:href="#DejaVuSans-67" x="1488.867188"/>
       <use xlink:href="#DejaVuSans-69" x="1552.34375"/>
       <use xlink:href="#DejaVuSans-75" x="1580.126953"/>
       <use xlink:href="#DejaVuSans-6d" x="1643.505859"/>
      </g>
     </g>
    </g>
    <g id="ytick_3">
     <g id="line2d_11">
      <g>
       <use xlink:href="#m5e5fdc9cd8" x="216.02" y="117.644687" style="stroke: #000000; stroke-width: 0.8"/>
      </g>
     </g>
     <g id="text_12">
      <!-- Stadio Olimpico, Rome, Italy -->
      <g transform="translate(67.368438 121.443906) scale(0.1 -0.1)">
       <defs>
        <path id="DejaVuSans-4f" d="M 2522 4238 
Q 1834 4238 1429 3725 
Q 1025 3213 1025 2328 
Q 1025 1447 1429 934 
Q 1834 422 2522 422 
Q 3209 422 3611 934 
Q 4013 1447 4013 2328 
Q 4013 3213 3611 3725 
Q 3209 4238 2522 4238 
z
M 2522 4750 
Q 3503 4750 4090 4092 
Q 4678 3434 4678 2328 
Q 4678 1225 4090 567 
Q 3503 -91 2522 -91 
Q 1538 -91 948 565 
Q 359 1222 359 2328 
Q 359 3434 948 4092 
Q 1538 4750 2522 4750 
z
" transform="scale(0.015625)"/>
        <path id="DejaVuSans-70" d="M 1159 525 
L 1159 -1331 
L 581 -1331 
L 581 3500 
L 1159 3500 
L 1159 2969 
Q 1341 3281 1617 3432 
Q 1894 3584 2278 3584 
Q 2916 3584 3314 3078 
Q 3713 2572 3713 1747 
Q 3713 922 3314 415 
Q 2916 -91 2278 -91 
Q 1894 -91 1617 61 
Q 1341 213 1159 525 
z
M 3116 1747 
Q 3116 2381 2855 2742 
Q 2594 3103 2138 3103 
Q 1681 3103 1420 2742 
Q 1159 2381 1159 1747 
Q 1159 1113 1420 752 
Q 1681 391 2138 391 
Q 2594 391 2855 752 
Q 3116 1113 3116 1747 
z
" transform="scale(0.015625)"/>
        <path id="DejaVuSans-63" d="M 3122 3366 
L 3122 2828 
Q 2878 2963 2633 3030 
Q 2388 3097 2138 3097 
Q 1578 3097 1268 2742 
Q 959 2388 959 1747 
Q 959 1106 1268 751 
Q 1578 397 2138 397 
Q 2388 397 2633 464 
Q 2878 531 3122 666 
L 3122 134 
Q 2881 22 2623 -34 
Q 2366 -91 2075 -91 
Q 1284 -91 818 406 
Q 353 903 353 1747 
Q 353 2603 823 3093 
Q 1294 3584 2113 3584 
Q 2378 3584 2631 3529 
Q 2884 3475 3122 3366 
z
" transform="scale(0.015625)"/>
        <path id="DejaVuSans-52" d="M 2841 2188 
Q 3044 2119 3236 1894 
Q 3428 1669 3622 1275 
L 4263 0 
L 3584 0 
L 2988 1197 
Q 2756 1666 2539 1819 
Q 2322 1972 1947 1972 
L 1259 1972 
L 1259 0 
L 628 0 
L 628 4666 
L 2053 4666 
Q 2853 4666 3247 4331 
Q 3641 3997 3641 3322 
Q 3641 2881 3436 2590 
Q 3231 2300 2841 2188 
z
M 1259 4147 
L 1259 2491 
L 2053 2491 
Q 2509 2491 2742 2702 
Q 2975 2913 2975 3322 
Q 2975 3731 2742 3939 
Q 2509 4147 2053 4147 
L 1259 4147 
z
" transform="scale(0.015625)"/>
        <path id="DejaVuSans-49" d="M 628 4666 
L 1259 4666 
L 1259 0 
L 628 0 
L 628 4666 
z
" transform="scale(0.015625)"/>
       </defs>
       <use xlink:href="#DejaVuSans-53"/>
       <use xlink:href="#DejaVuSans-74" x="63.476562"/>
       <use xlink:href="#DejaVuSans-61" x="102.685547"/>
       <use xlink:href="#DejaVuSans-64" x="163.964844"/>
       <use xlink:href="#DejaVuSans-69" x="227.441406"/>
       <use xlink:href="#DejaVuSans-6f" x="255.224609"/>
       <use xlink:href="#DejaVuSans-20" x="316.40625"/>
       <use xlink:href="#DejaVuSans-4f" x="348.193359"/>
       <use xlink:href="#DejaVuSans-6c" x="426.904297"/>
       <use xlink:href="#DejaVuSans-69" x="454.6875"/>
       <use xlink:href="#DejaVuSans-6d" x="482.470703"/>
       <use xlink:href="#DejaVuSans-70" x="579.882812"/>
       <use xlink:href="#DejaVuSans-69" x="643.359375"/>
       <use xlink:href="#DejaVuSans-63" x="671.142578"/>
       <use xlink:href="#DejaVuSans-6f" x="726.123047"/>
       <use xlink:href="#DejaVuSans-2c" x="787.304688"/>
       <use xlink:href="#DejaVuSans-20" x="819.091797"/>
       <use xlink:href="#DejaVuSans-52" x="850.878906"/>
       <use xlink:href="#DejaVuSans-6f" x="915.861328"/>
       <use xlink:href="#DejaVuSans-6d" x="977.042969"/>
       <use xlink:href="#DejaVuSans-65" x="1074.455078"/>
       <use xlink:href="#DejaVuSans-2c" x="1135.978516"/>
       <use xlink:href="#DejaVuSans-20" x="1167.765625"/>
       <use xlink:href="#DejaVuSans-49" x="1199.552734"/>
       <use xlink:href="#DejaVuSans-74" x="1229.044922"/>
       <use xlink:href="#DejaVuSans-61" x="1268.253906"/>
       <use xlink:href="#DejaVuSans-6c" x="1329.533203"/>
       <use xlink:href="#DejaVuSans-79" x="1357.316406"/>
      </g>
     </g>
    </g>
    <g id="ytick_4">
     <g id="line2d_12">
      <g>
       <use xlink:href="#m5e5fdc9cd8" x="216.02" y="153.950562" style="stroke: #000000; stroke-width: 0.8"/>
      </g>
     </g>
     <g id="text_13">
      <!-- San Siro, Milan, Italy -->
      <g transform="translate(106.83875 157.749781) scale(0.1 -0.1)">
       <defs>
        <path id="DejaVuSans-4d" d="M 628 4666 
L 1569 4666 
L 2759 1491 
L 3956 4666 
L 4897 4666 
L 4897 0 
L 4281 0 
L 4281 4097 
L 3078 897 
L 2444 897 
L 1241 4097 
L 1241 0 
L 628 0 
L 628 4666 
z
" transform="scale(0.015625)"/>
       </defs>
       <use xlink:href="#DejaVuSans-53"/>
       <use xlink:href="#DejaVuSans-61" x="63.476562"/>
       <use xlink:href="#DejaVuSans-6e" x="124.755859"/>
       <use xlink:href="#DejaVuSans-20" x="188.134766"/>
       <use xlink:href="#DejaVuSans-53" x="219.921875"/>
       <use xlink:href="#DejaVuSans-69" x="283.398438"/>
       <use xlink:href="#DejaVuSans-72" x="311.181641"/>
       <use xlink:href="#DejaVuSans-6f" x="350.044922"/>
       <use xlink:href="#DejaVuSans-2c" x="411.226562"/>
       <use xlink:href="#DejaVuSans-20" x="443.013672"/>
       <use xlink:href="#DejaVuSans-4d" x="474.800781"/>
       <use xlink:href="#DejaVuSans-69" x="561.080078"/>
       <use xlink:href="#DejaVuSans-6c" x="588.863281"/>
       <use xlink:href="#DejaVuSans-61" x="616.646484"/>
       <use xlink:href="#DejaVuSans-6e" x="677.925781"/>
       <use xlink:href="#DejaVuSans-2c" x="741.304688"/>
       <use xlink:href="#DejaVuSans-20" x="773.091797"/>
       <use xlink:href="#DejaVuSans-49" x="804.878906"/>
       <use xlink:href="#DejaVuSans-74" x="834.371094"/>
       <use xlink:href="#DejaVuSans-61" x="873.580078"/>
       <use xlink:href="#DejaVuSans-6c" x="934.859375"/>
       <use xlink:href="#DejaVuSans-79" x="962.642578"/>
      </g>
     </g>
    </g>
    <g id="ytick_5">
     <g id="line2d_13">
      <g>
       <use xlink:href="#m5e5fdc9cd8" x="216.02" y="190.256437" style="stroke: #000000; stroke-width: 0.8"/>
      </g>
     </g>
     <g id="text_14">
      <!-- Santiago Bernabéu, Madrid, Spain -->
      <g transform="translate(38.484063 194.255656) scale(0.1 -0.1)">
       <defs>
        <path id="DejaVuSans-e9" d="M 3597 1894 
L 3597 1613 
L 953 1613 
Q 991 1019 1311 708 
Q 1631 397 2203 397 
Q 2534 397 2845 478 
Q 3156 559 3463 722 
L 3463 178 
Q 3153 47 2828 -22 
Q 2503 -91 2169 -91 
Q 1331 -91 842 396 
Q 353 884 353 1716 
Q 353 2575 817 3079 
Q 1281 3584 2069 3584 
Q 2775 3584 3186 3129 
Q 3597 2675 3597 1894 
z
M 3022 2063 
Q 3016 2534 2758 2815 
Q 2500 3097 2075 3097 
Q 1594 3097 1305 2825 
Q 1016 2553 972 2059 
L 3022 2063 
z
M 2466 5119 
L 3088 5119 
L 2070 3944 
L 1591 3944 
L 2466 5119 
z
" transform="scale(0.015625)"/>
       </defs>
       <use xlink:href="#DejaVuSans-53"/>
       <use xlink:href="#DejaVuSans-61" x="63.476562"/>
       <use xlink:href="#DejaVuSans-6e" x="124.755859"/>
       <use xlink:href="#DejaVuSans-74" x="188.134766"/>
       <use xlink:href="#DejaVuSans-69" x="227.34375"/>
       <use xlink:href="#DejaVuSans-61" x="255.126953"/>
       <use xlink:href="#DejaVuSans-67" x="316.40625"/>
       <use xlink:href="#DejaVuSans-6f" x="379.882812"/>
       <use xlink:href="#DejaVuSans-20" x="441.064453"/>
       <use xlink:href="#DejaVuSans-42" x="472.851562"/>
       <use xlink:href="#DejaVuSans-65" x="541.455078"/>
       <use xlink:href="#DejaVuSans-72" x="602.978516"/>
       <use xlink:href="#DejaVuSans-6e" x="642.341797"/>
       <use xlink:href="#DejaVuSans-61" x="705.720703"/>
       <use xlink:href="#DejaVuSans-62" x="767"/>
       <use xlink:href="#DejaVuSans-e9" x="830.476562"/>
       <use xlink:href="#DejaVuSans-75" x="892"/>
       <use xlink:href="#DejaVuSans-2c" x="955.378906"/>
       <use xlink:href="#DejaVuSans-20" x="987.166016"/>
       <use xlink:href="#DejaVuSans-4d" x="1018.953125"/>
       <use xlink:href="#DejaVuSans-61" x="1105.232422"/>
       <use xlink:href="#DejaVuSans-64" x="1166.511719"/>
       <use xlink:href="#DejaVuSans-72" x="1229.988281"/>
       <use xlink:href="#DejaVuSans-69" x="1271.101562"/>
       <use xlink:href="#DejaVuSans-64" x="1298.884766"/>
       <use xlink:href="#DejaVuSans-2c" x="1362.361328"/>
       <use xlink:href="#DejaVuSans-20" x="1394.148438"/>
       <use xlink:href="#DejaVuSans-53" x="1425.935547"/>
       <use xlink:href="#DejaVuSans-70" x="1489.412109"/>
       <use xlink:href="#DejaVuSans-61" x="1552.888672"/>
       <use xlink:href="#DejaVuSans-69" x="1614.167969"/>
       <use xlink:href="#DejaVuSans-6e" x="1641.951172"/>
      </g>
     </g>
    </g>
    <g id="ytick_6">
     <g id="line2d_14">
      <g>
       <use xlink:href="#m5e5fdc9cd8" x="216.02" y="226.562312" style="stroke: #000000; stroke-width: 0.8"/>
      </g>
     </g>
     <g id="text_15">
      <!-- Parc des Princes, Paris, France -->
      <g transform="translate(58.145 230.361531) scale(0.1 -0.1)">
       <defs>
        <path id="DejaVuSans-50" d="M 1259 4147 
L 1259 2394 
L 2053 2394 
Q 2494 2394 2734 2622 
Q 2975 2850 2975 3272 
Q 2975 3691 2734 3919 
Q 2494 4147 2053 4147 
L 1259 4147 
z
M 628 4666 
L 2053 4666 
Q 2838 4666 3239 4311 
Q 3641 3956 3641 3272 
Q 3641 2581 3239 2228 
Q 2838 1875 2053 1875 
L 1259 1875 
L 1259 0 
L 628 0 
L 628 4666 
z
" transform="scale(0.015625)"/>
        <path id="DejaVuSans-46" d="M 628 4666 
L 3309 4666 
L 3309 4134 
L 1259 4134 
L 1259 2759 
L 3109 2759 
L 3109 2228 
L 1259 2228 
L 1259 0 
L 628 0 
L 628 4666 
z
" transform="scale(0.015625)"/>
       </defs>
       <use xlink:href="#DejaVuSans-50"/>
       <use xlink:href="#DejaVuSans-61" x="55.802734"/>
       <use xlink:href="#DejaVuSans-72" x="117.082031"/>
       <use xlink:href="#DejaVuSans-63" x="155.945312"/>
       <use xlink:href="#DejaVuSans-20" x="210.925781"/>
       <use xlink:href="#DejaVuSans-64" x="242.712891"/>
       <use xlink:href="#DejaVuSans-65" x="306.189453"/>
       <use xlink:href="#DejaVuSans-73" x="367.712891"/>
       <use xlink:href="#DejaVuSans-20" x="419.8125"/>
       <use xlink:href="#DejaVuSans-50" x="451.599609"/>
       <use xlink:href="#DejaVuSans-72" x="510.152344"/>
       <use xlink:href="#DejaVuSans-69" x="551.265625"/>
       <use xlink:href="#DejaVuSans-6e" x="579.048828"/>
       <use xlink:href="#DejaVuSans-63" x="642.427734"/>
       <use xlink:href="#DejaVuSans-65" x="697.408203"/>
       <use xlink:href="#DejaVuSans-73" x="758.931641"/>
       <use xlink:href="#DejaVuSans-2c" x="811.03125"/>
       <use xlink:href="#DejaVuSans-20" x="842.818359"/>
       <use xlink:href="#DejaVuSans-50" x="874.605469"/>
       <use xlink:href="#DejaVuSans-61" x="930.408203"/>
       <use xlink:href="#DejaVuSans-72" x="991.6875"/>
       <use xlink:href="#DejaVuSans-69" x="1032.800781"/>
       <use xlink:href="#DejaVuSans-73" x="1060.583984"/>
       <use xlink:href="#DejaVuSans-2c" x="1112.683594"/>
       <use xlink:href="#DejaVuSans-20" x="1144.470703"/>
       <use xlink:href="#DejaVuSans-46" x="1176.257812"/>
       <use xlink:href="#DejaVuSans-72" x="1226.527344"/>
       <use xlink:href="#DejaVuSans-61" x="1267.640625"/>
       <use xlink:href="#DejaVuSans-6e" x="1328.919922"/>
       <use xlink:href="#DejaVuSans-63" x="1392.298828"/>
       <use xlink:href="#DejaVuSans-65" x="1447.279297"/>
      </g>
     </g>
    </g>
    <g id="ytick_7">
     <g id="line2d_15">
      <g>
       <use xlink:href="#m5e5fdc9cd8" x="216.02" y="262.868187" style="stroke: #000000; stroke-width: 0.8"/>
      </g>
     </g>
     <g id="text_16">
      <!-- Hampden Park, Glasgow, Scotland -->
      <g transform="translate(36.955938 266.667406) scale(0.1 -0.1)">
       <defs>
        <path id="DejaVuSans-6b" d="M 581 4863 
L 1159 4863 
L 1159 1991 
L 2875 3500 
L 3609 3500 
L 1753 1863 
L 3688 0 
L 2938 0 
L 1159 1709 
L 1159 0 
L 581 0 
L 581 4863 
z
" transform="scale(0.015625)"/>
        <path id="DejaVuSans-47" d="M 3809 666 
L 3809 1919 
L 2778 1919 
L 2778 2438 
L 4434 2438 
L 4434 434 
Q 4069 175 3628 42 
Q 3188 -91 2688 -91 
Q 1594 -91 976 548 
Q 359 1188 359 2328 
Q 359 3472 976 4111 
Q 1594 4750 2688 4750 
Q 3144 4750 3555 4637 
Q 3966 4525 4313 4306 
L 4313 3634 
Q 3963 3931 3569 4081 
Q 3175 4231 2741 4231 
Q 1884 4231 1454 3753 
Q 1025 3275 1025 2328 
Q 1025 1384 1454 906 
Q 1884 428 2741 428 
Q 3075 428 3337 486 
Q 3600 544 3809 666 
z
" transform="scale(0.015625)"/>
        <path id="DejaVuSans-77" d="M 269 3500 
L 844 3500 
L 1563 769 
L 2278 3500 
L 2956 3500 
L 3675 769 
L 4391 3500 
L 4966 3500 
L 4050 0 
L 3372 0 
L 2619 2869 
L 1863 0 
L 1184 0 
L 269 3500 
z
" transform="scale(0.015625)"/>
       </defs>
       <use xlink:href="#DejaVuSans-48"/>
       <use xlink:href="#DejaVuSans-61" x="75.195312"/>
       <use xlink:href="#DejaVuSans-6d" x="136.474609"/>
       <use xlink:href="#DejaVuSans-70" x="233.886719"/>
       <use xlink:href="#DejaVuSans-64" x="297.363281"/>
       <use xlink:href="#DejaVuSans-65" x="360.839844"/>
       <use xlink:href="#DejaVuSans-6e" x="422.363281"/>
       <use xlink:href="#DejaVuSans-20" x="485.742188"/>
       <use xlink:href="#DejaVuSans-50" x="517.529297"/>
       <use xlink:href="#DejaVuSans-61" x="573.332031"/>
       <use xlink:href="#DejaVuSans-72" x="634.611328"/>
       <use xlink:href="#DejaVuSans-6b" x="675.724609"/>
       <use xlink:href="#DejaVuSans-2c" x="733.634766"/>
       <use xlink:href="#DejaVuSans-20" x="765.421875"/>
       <use xlink:href="#DejaVuSans-47" x="797.208984"/>
       <use xlink:href="#DejaVuSans-6c" x="874.699219"/>
       <use xlink:href="#DejaVuSans-61" x="902.482422"/>
       <use xlink:href="#DejaVuSans-73" x="963.761719"/>
       <use xlink:href="#DejaVuSans-67" x="1015.861328"/>
       <use xlink:href="#DejaVuSans-6f" x="1079.337891"/>
       <use xlink:href="#DejaVuSans-77" x="1140.519531"/>
       <use xlink:href="#DejaVuSans-2c" x="1222.306641"/>
       <use xlink:href="#DejaVuSans-20" x="1254.09375"/>
       <use xlink:href="#DejaVuSans-53" x="1285.880859"/>
       <use xlink:href="#DejaVuSans-63" x="1349.357422"/>
       <use xlink:href="#DejaVuSans-6f" x="1404.337891"/>
       <use xlink:href="#DejaVuSans-74" x="1465.519531"/>
       <use xlink:href="#DejaVuSans-6c" x="1504.728516"/>
       <use xlink:href="#DejaVuSans-61" x="1532.511719"/>
       <use xlink:href="#DejaVuSans-6e" x="1593.791016"/>
       <use xlink:href="#DejaVuSans-64" x="1657.169922"/>
      </g>
     </g>
    </g>
    <g id="ytick_8">
     <g id="line2d_16">
      <g>
       <use xlink:href="#m5e5fdc9cd8" x="216.02" y="299.174062" style="stroke: #000000; stroke-width: 0.8"/>
      </g>
     </g>
     <g id="text_17">
      <!-- Stade de France, Saint-Denis, France -->
      <g transform="translate(24.743438 302.973281) scale(0.1 -0.1)">
       <defs>
        <path id="DejaVuSans-2d" d="M 313 2009 
L 1997 2009 
L 1997 1497 
L 313 1497 
L 313 2009 
z
" transform="scale(0.015625)"/>
        <path id="DejaVuSans-44" d="M 1259 4147 
L 1259 519 
L 2022 519 
Q 2988 519 3436 956 
Q 3884 1394 3884 2338 
Q 3884 3275 3436 3711 
Q 2988 4147 2022 4147 
L 1259 4147 
z
M 628 4666 
L 1925 4666 
Q 3281 4666 3915 4102 
Q 4550 3538 4550 2338 
Q 4550 1131 3912 565 
Q 3275 0 1925 0 
L 628 0 
L 628 4666 
z
" transform="scale(0.015625)"/>
       </defs>
       <use xlink:href="#DejaVuSans-53"/>
       <use xlink:href="#DejaVuSans-74" x="63.476562"/>
       <use xlink:href="#DejaVuSans-61" x="102.685547"/>
       <use xlink:href="#DejaVuSans-64" x="163.964844"/>
       <use xlink:href="#DejaVuSans-65" x="227.441406"/>
       <use xlink:href="#DejaVuSans-20" x="288.964844"/>
       <use xlink:href="#DejaVuSans-64" x="320.751953"/>
       <use xlink:href="#DejaVuSans-65" x="384.228516"/>
       <use xlink:href="#DejaVuSans-20" x="445.751953"/>
       <use xlink:href="#DejaVuSans-46" x="477.539062"/>
       <use xlink:href="#DejaVuSans-72" x="527.808594"/>
       <use xlink:href="#DejaVuSans-61" x="568.921875"/>
       <use xlink:href="#DejaVuSans-6e" x="630.201172"/>
       <use xlink:href="#DejaVuSans-63" x="693.580078"/>
       <use xlink:href="#DejaVuSans-65" x="748.560547"/>
       <use xlink:href="#DejaVuSans-2c" x="810.083984"/>
       <use xlink:href="#DejaVuSans-20" x="841.871094"/>
       <use xlink:href="#DejaVuSans-53" x="873.658203"/>
       <use xlink:href="#DejaVuSans-61" x="937.134766"/>
       <use xlink:href="#DejaVuSans-69" x="998.414062"/>
       <use xlink:href="#DejaVuSans-6e" x="1026.197266"/>
       <use xlink:href="#DejaVuSans-74" x="1089.576172"/>
       <use xlink:href="#DejaVuSans-2d" x="1128.785156"/>
       <use xlink:href="#DejaVuSans-44" x="1164.869141"/>
       <use xlink:href="#DejaVuSans-65" x="1241.871094"/>
       <use xlink:href="#DejaVuSans-6e" x="1303.394531"/>
       <use xlink:href="#DejaVuSans-69" x="1366.773438"/>
       <use xlink:href="#DejaVuSans-73" x="1394.556641"/>
       <use xlink:href="#DejaVuSans-2c" x="1446.65625"/>
       <use xlink:href="#DejaVuSans-20" x="1478.443359"/>
       <use xlink:href="#DejaVuSans-46" x="1510.230469"/>
       <use xlink:href="#DejaVuSans-72" x="1560.5"/>
       <use xlink:href="#DejaVuSans-61" x="1601.613281"/>
       <use xlink:href="#DejaVuSans-6e" x="1662.892578"/>
       <use xlink:href="#DejaVuSans-63" x="1726.271484"/>
       <use xlink:href="#DejaVuSans-65" x="1781.251953"/>
      </g>
     </g>
    </g>
    <g id="ytick_9">
     <g id="line2d_17">
      <g>
       <use xlink:href="#m5e5fdc9cd8" x="216.02" y="335.479937" style="stroke: #000000; stroke-width: 0.8"/>
      </g>
     </g>
     <g id="text_18">
      <!-- Praterstadion, Vienna, Austria -->
      <g transform="translate(59.51375 339.279156) scale(0.1 -0.1)">
       <defs>
        <path id="DejaVuSans-56" d="M 1831 0 
L 50 4666 
L 709 4666 
L 2188 738 
L 3669 4666 
L 4325 4666 
L 2547 0 
L 1831 0 
z
" transform="scale(0.015625)"/>
        <path id="DejaVuSans-41" d="M 2188 4044 
L 1331 1722 
L 3047 1722 
L 2188 4044 
z
M 1831 4666 
L 2547 4666 
L 4325 0 
L 3669 0 
L 3244 1197 
L 1141 1197 
L 716 0 
L 50 0 
L 1831 4666 
z
" transform="scale(0.015625)"/>
       </defs>
       <use xlink:href="#DejaVuSans-50"/>
       <use xlink:href="#DejaVuSans-72" x="58.552734"/>
       <use xlink:href="#DejaVuSans-61" x="99.666016"/>
       <use xlink:href="#DejaVuSans-74" x="160.945312"/>
       <use xlink:href="#DejaVuSans-65" x="200.154297"/>
       <use xlink:href="#DejaVuSans-72" x="261.677734"/>
       <use xlink:href="#DejaVuSans-73" x="302.791016"/>
       <use xlink:href="#DejaVuSans-74" x="354.890625"/>
       <use xlink:href="#DejaVuSans-61" x="394.099609"/>
       <use xlink:href="#DejaVuSans-64" x="455.378906"/>
       <use xlink:href="#DejaVuSans-69" x="518.855469"/>
       <use xlink:href="#DejaVuSans-6f" x="546.638672"/>
       <use xlink:href="#DejaVuSans-6e" x="607.820312"/>
       <use xlink:href="#DejaVuSans-2c" x="671.199219"/>
       <use xlink:href="#DejaVuSans-20" x="702.986328"/>
       <use xlink:href="#DejaVuSans-56" x="734.773438"/>
       <use xlink:href="#DejaVuSans-69" x="800.931641"/>
       <use xlink:href="#DejaVuSans-65" x="828.714844"/>
       <use xlink:href="#DejaVuSans-6e" x="890.238281"/>
       <use xlink:href="#DejaVuSans-6e" x="953.617188"/>
       <use xlink:href="#DejaVuSans-61" x="1016.996094"/>
       <use xlink:href="#DejaVuSans-2c" x="1078.275391"/>
       <use xlink:href="#DejaVuSans-20" x="1110.0625"/>
       <use xlink:href="#DejaVuSans-41" x="1141.849609"/>
       <use xlink:href="#DejaVuSans-75" x="1210.257812"/>
       <use xlink:href="#DejaVuSans-73" x="1273.636719"/>
       <use xlink:href="#DejaVuSans-74" x="1325.736328"/>
       <use xlink:href="#DejaVuSans-72" x="1364.945312"/>
       <use xlink:href="#DejaVuSans-69" x="1406.058594"/>
       <use xlink:href="#DejaVuSans-61" x="1433.841797"/>
      </g>
     </g>
    </g>
    <g id="ytick_10">
     <g id="line2d_18">
      <g>
       <use xlink:href="#m5e5fdc9cd8" x="216.02" y="371.785812" style="stroke: #000000; stroke-width: 0.8"/>
      </g>
     </g>
     <g id="text_19">
      <!-- Olympic Stadium, Athens, Greece -->
      <g transform="translate(40.377813 375.585031) scale(0.1 -0.1)">
       <use xlink:href="#DejaVuSans-4f"/>
       <use xlink:href="#DejaVuSans-6c" x="78.710938"/>
       <use xlink:href="#DejaVuSans-79" x="106.494141"/>
       <use xlink:href="#DejaVuSans-6d" x="165.673828"/>
       <use xlink:href="#DejaVuSans-70" x="263.085938"/>
       <use xlink:href="#DejaVuSans-69" x="326.5625"/>
       <use xlink:href="#DejaVuSans-63" x="354.345703"/>
       <use xlink:href="#DejaVuSans-20" x="409.326172"/>
       <use xlink:href="#DejaVuSans-53" x="441.113281"/>
       <use xlink:href="#DejaVuSans-74" x="504.589844"/>
       <use xlink:href="#DejaVuSans-61" x="543.798828"/>
       <use xlink:href="#DejaVuSans-64" x="605.078125"/>
       <use xlink:href="#DejaVuSans-69" x="668.554688"/>
       <use xlink:href="#DejaVuSans-75" x="696.337891"/>
       <use xlink:href="#DejaVuSans-6d" x="759.716797"/>
       <use xlink:href="#DejaVuSans-2c" x="857.128906"/>
       <use xlink:href="#DejaVuSans-20" x="888.916016"/>
       <use xlink:href="#DejaVuSans-41" x="920.703125"/>
       <use xlink:href="#DejaVuSans-74" x="987.361328"/>
       <use xlink:href="#DejaVuSans-68" x="1026.570312"/>
       <use xlink:href="#DejaVuSans-65" x="1089.949219"/>
       <use xlink:href="#DejaVuSans-6e" x="1151.472656"/>
       <use xlink:href="#DejaVuSans-73" x="1214.851562"/>
       <use xlink:href="#DejaVuSans-2c" x="1266.951172"/>
       <use xlink:href="#DejaVuSans-20" x="1298.738281"/>
       <use xlink:href="#DejaVuSans-47" x="1330.525391"/>
       <use xlink:href="#DejaVuSans-72" x="1408.015625"/>
       <use xlink:href="#DejaVuSans-65" x="1446.878906"/>
       <use xlink:href="#DejaVuSans-65" x="1508.402344"/>
       <use xlink:href="#DejaVuSans-63" x="1569.925781"/>
       <use xlink:href="#DejaVuSans-65" x="1624.90625"/>
      </g>
     </g>
    </g>
    <g id="text_20">
     <!-- Venue -->
     <g transform="translate(18.66375 223.932812) rotate(-90) scale(0.1 -0.1)">
      <use xlink:href="#DejaVuSans-56"/>
      <use xlink:href="#DejaVuSans-65" x="60.658203"/>
      <use xlink:href="#DejaVuSans-6e" x="122.181641"/>
      <use xlink:href="#DejaVuSans-75" x="185.560547"/>
      <use xlink:href="#DejaVuSans-65" x="248.939453"/>
     </g>
    </g>
   </g>
   <g id="line2d_19">
    <path clip-path="url(#p7e904601e3)" style="fill: none; stroke: #424242; stroke-width: 2.25; stroke-linecap: square"/>
   </g>
   <g id="line2d_20">
    <path clip-path="url(#p7e904601e3)" style="fill: none; stroke: #424242; stroke-width: 2.25; stroke-linecap: square"/>
   </g>
   <g id="line2d_21">
    <path clip-path="url(#p7e904601e3)" style="fill: none; stroke: #424242; stroke-width: 2.25; stroke-linecap: square"/>
   </g>
   <g id="line2d_22">
    <path clip-path="url(#p7e904601e3)" style="fill: none; stroke: #424242; stroke-width: 2.25; stroke-linecap: square"/>
   </g>
   <g id="line2d_23">
    <path clip-path="url(#p7e904601e3)" style="fill: none; stroke: #424242; stroke-width: 2.25; stroke-linecap: square"/>
   </g>
   <g id="line2d_24">
    <path clip-path="url(#p7e904601e3)" style="fill: none; stroke: #424242; stroke-width: 2.25; stroke-linecap: square"/>
   </g>
   <g id="line2d_25">
    <path clip-path="url(#p7e904601e3)" style="fill: none; stroke: #424242; stroke-width: 2.25; stroke-linecap: square"/>
   </g>
   <g id="line2d_26">
    <path clip-path="url(#p7e904601e3)" style="fill: none; stroke: #424242; stroke-width: 2.25; stroke-linecap: square"/>
   </g>
   <g id="line2d_27">
    <path clip-path="url(#p7e904601e3)" style="fill: none; stroke: #424242; stroke-width: 2.25; stroke-linecap: square"/>
   </g>
   <g id="line2d_28">
    <path clip-path="url(#p7e904601e3)" style="fill: none; stroke: #424242; stroke-width: 2.25; stroke-linecap: square"/>
   </g>
   <g id="patch_13">
    <path d="M 216.02 389.93875 
L 216.02 26.88 
" style="fill: none; stroke: #000000; stroke-width: 0.8; stroke-linejoin: miter; stroke-linecap: square"/>
   </g>
   <g id="patch_14">
    <path d="M 853.2 389.93875 
L 853.2 26.88 
" style="fill: none; stroke: #000000; stroke-width: 0.8; stroke-linejoin: miter; stroke-linecap: square"/>
   </g>
   <g id="patch_15">
    <path d="M 216.02 389.93875 
L 853.2 389.93875 
" style="fill: none; stroke: #000000; stroke-width: 0.8; stroke-linejoin: miter; stroke-linecap: square"/>
   </g>
   <g id="patch_16">
    <path d="M 216.02 26.88 
L 853.2 26.88 
" style="fill: none; stroke: #000000; stroke-width: 0.8; stroke-linejoin: miter; stroke-linecap: square"/>
   </g>
   <g id="text_21">
    <!-- Top 10 des Stades Ayant Accueilli le Plus de Finales -->
    <g transform="translate(381.03625 20.88) scale(0.12 -0.12)">
     <defs>
      <path id="DejaVuSans-54" d="M -19 4666 
L 3928 4666 
L 3928 4134 
L 2272 4134 
L 2272 0 
L 1638 0 
L 1638 4134 
L -19 4134 
L -19 4666 
z
" transform="scale(0.015625)"/>
     </defs>
     <use xlink:href="#DejaVuSans-54"/>
     <use xlink:href="#DejaVuSans-6f" x="44.083984"/>
     <use xlink:href="#DejaVuSans-70" x="105.265625"/>
     <use xlink:href="#DejaVuSans-20" x="168.742188"/>
     <use xlink:href="#DejaVuSans-31" x="200.529297"/>
     <use xlink:href="#DejaVuSans-30" x="264.152344"/>
     <use xlink:href="#DejaVuSans-20" x="327.775391"/>
     <use xlink:href="#DejaVuSans-64" x="359.5625"/>
     <use xlink:href="#DejaVuSans-65" x="423.039062"/>
     <use xlink:href="#DejaVuSans-73" x="484.5625"/>
     <use xlink:href="#DejaVuSans-20" x="536.662109"/>
     <use xlink:href="#DejaVuSans-53" x="568.449219"/>
     <use xlink:href="#DejaVuSans-74" x="631.925781"/>
     <use xlink:href="#DejaVuSans-61" x="671.134766"/>
     <use xlink:href="#DejaVuSans-64" x="732.414062"/>
     <use xlink:href="#DejaVuSans-65" x="795.890625"/>
     <use xlink:href="#DejaVuSans-73" x="857.414062"/>
     <use xlink:href="#DejaVuSans-20" x="909.513672"/>
     <use xlink:href="#DejaVuSans-41" x="941.300781"/>
     <use xlink:href="#DejaVuSans-79" x="1002.958984"/>
     <use xlink:href="#DejaVuSans-61" x="1062.138672"/>
     <use xlink:href="#DejaVuSans-6e" x="1123.417969"/>
     <use xlink:href="#DejaVuSans-74" x="1186.796875"/>
     <use xlink:href="#DejaVuSans-20" x="1226.005859"/>
     <use xlink:href="#DejaVuSans-41" x="1257.792969"/>
     <use xlink:href="#DejaVuSans-63" x="1324.451172"/>
     <use xlink:href="#DejaVuSans-63" x="1379.431641"/>
     <use xlink:href="#DejaVuSans-75" x="1434.412109"/>
     <use xlink:href="#DejaVuSans-65" x="1497.791016"/>
     <use xlink:href="#DejaVuSans-69" x="1559.314453"/>
     <use xlink:href="#DejaVuSans-6c" x="1587.097656"/>
     <use xlink:href="#DejaVuSans-6c" x="1614.880859"/>
     <use xlink:href="#DejaVuSans-69" x="1642.664062"/>
     <use xlink:href="#DejaVuSans-20" x="1670.447266"/>
     <use xlink:href="#DejaVuSans-6c" x="1702.234375"/>
     <use xlink:href="#DejaVuSans-65" x="1730.017578"/>
     <use xlink:href="#DejaVuSans-20" x="1791.541016"/>
     <use xlink:href="#DejaVuSans-50" x="1823.328125"/>
     <use xlink:href="#DejaVuSans-6c" x="1883.630859"/>
     <use xlink:href="#DejaVuSans-75" x="1911.414062"/>
     <use xlink:href="#DejaVuSans-73" x="1974.792969"/>
     <use xlink:href="#DejaVuSans-20" x="2026.892578"/>
     <use xlink:href="#DejaVuSans-64" x="2058.679688"/>
     <use xlink:href="#DejaVuSans-65" x="2122.15625"/>
     <use xlink:href="#DejaVuSans-20" x="2183.679688"/>
     <use xlink:href="#DejaVuSans-46" x="2215.466797"/>
     <use xlink:href="#DejaVuSans-69" x="2265.736328"/>
     <use xlink:href="#DejaVuSans-6e" x="2293.519531"/>
     <use xlink:href="#DejaVuSans-61" x="2356.898438"/>
     <use xlink:href="#DejaVuSans-6c" x="2418.177734"/>
     <use xlink:href="#DejaVuSans-65" x="2445.960938"/>
     <use xlink:href="#DejaVuSans-73" x="2507.484375"/>
    </g>
   </g>
  </g>
 </g>
 <defs>
  <clipPath id="p7e904601e3">
   <rect x="216.02" y="26.88" width="637.18" height="363.05875"/>
  </clipPath>
 </defs>
</svg>
